<?xml version="1.0" encoding="UTF-8" standalone="no"?>
<!-- Created with Inkscape (http://www.inkscape.org/) -->

<svg
   sodipodi:docname="drawingdoggone3.svg"
   id="svg5"
   version="1.1"
   viewBox="0 0 228.6 152.4"
   height="6in"
   width="9in"
   inkscape:version="1.1.2 (b8e25be833, 2022-02-05)"
   xmlns:inkscape="http://www.inkscape.org/namespaces/inkscape"
   xmlns:sodipodi="http://sodipodi.sourceforge.net/DTD/sodipodi-0.dtd"
   xmlns="http://www.w3.org/2000/svg"
   xmlns:svg="http://www.w3.org/2000/svg">
  <sodipodi:namedview
     id="namedview7"
     pagecolor="#ffffff"
     bordercolor="#666666"
     borderopacity="1.0"
     inkscape:pageshadow="2"
     inkscape:pageopacity="0.0"
     inkscape:pagecheckerboard="true"
     inkscape:document-units="in"
     showgrid="false"
     inkscape:zoom="0.7198092"
     inkscape:cx="517.49825"
     inkscape:cy="450.81391"
     inkscape:window-width="1920"
     inkscape:window-height="1001"
     inkscape:window-x="-9"
     inkscape:window-y="-9"
     inkscape:window-maximized="1"
     inkscape:current-layer="layer1"
     units="in"
     width="10in" />
  <defs
     id="defs2">
    <clipPath
       clipPathUnits="userSpaceOnUse"
       id="clipPath23">
      <path
         d="m 2084,366 h 8758 V 9324 H 2084 V 366"
         id="path21" />
    </clipPath>
    <clipPath
       clipPathUnits="userSpaceOnUse"
       id="clipPath33414">
      <path
         d="M 1199,2990 H 8727 V 9370 H 1199 V 2990"
         id="path33412" />
    </clipPath>
    <clipPath
       clipPathUnits="userSpaceOnUse"
       id="clipPath35134">
      <rect
         style="fill:#ffffff;fill-opacity:1;stroke-width:0.263416"
         id="rect35136"
         width="199.61412"
         height="158.02789"
         x="6.2379422"
         y="35.348335" />
    </clipPath>
  </defs>
  <g
     inkscape:label="Layer 1"
     inkscape:groupmode="layer"
     id="layer1">
    <path
       style="fill:#ffffff;fill-opacity:1;stroke-width:0.22707"
       d="m 44.896559,185.88034 -4.427872,-0.12297 -4.600019,-2.32947 -4.60002,-2.32948 0.785173,-1.53072 c 0.611258,-1.19167 1.039181,-1.70043 1.931943,-2.2969 1.370621,-0.91574 1.305516,-0.0794 0.673965,-8.65724 -0.463489,-6.29516 -0.504169,-6.56981 -1.492756,-10.07895 l -1.016284,-3.60744 0.274314,-5.72164 0.274315,-5.72164 -7.479029,-10.19897 c -4.113467,-5.60943 -7.550065,-10.31531 -7.636886,-10.45748 -0.08682,-0.14219 -0.732453,-7.32596 -1.434737,-15.96401 L 14.871785,91.157951 12.417907,86.91264 9.9640283,82.667326 12.297907,72.500289 c 1.283633,-5.591872 2.373918,-10.20311 2.422853,-10.247197 0.04894,-0.04408 3.665333,-2.526509 8.036437,-5.516495 4.371106,-2.989985 11.265704,-7.865273 15.321327,-10.833972 l 7.373864,-5.397635 0.593046,2.745759 c 0.326178,1.510168 0.635388,2.785959 0.687136,2.835094 0.05175,0.04913 2.290994,-0.705306 4.9761,-1.676531 2.685108,-0.971225 4.885193,-1.752478 4.889077,-1.736119 0.0038,0.01636 -0.0983,2.222998 -0.227072,4.903639 l -0.234131,4.873893 1.276911,6.316451 c 0.904113,4.472335 1.401318,6.460611 1.703028,6.810227 0.234365,0.271576 3.074399,3.342687 6.311189,6.824694 l 5.885077,6.330919 -1.116597,2.303277 c -0.614128,1.266803 -1.491451,2.716418 -1.94961,3.221364 l -0.833012,0.918086 1.19598,0.835768 1.195978,0.835769 15.077822,0.232367 c 14.702193,0.226578 15.29674,0.218862 23.8667,-0.30974 l 8.78889,-0.542106 14.11972,4.400857 c 7.76584,2.42047 14.14048,4.429361 14.16586,4.464197 0.0254,0.03484 1.26304,2.440673 2.75034,5.346285 l 2.7042,5.28299 15.07686,12.4286 c 8.29228,6.8357 15.34282,12.59372 15.66786,12.79561 0.32505,0.20188 5.5723,1.68352 11.66058,3.29252 6.08827,1.609 11.06963,2.9877 11.06968,3.06378 5e-5,0.0761 -2.66235,2.72328 -5.91643,5.88267 l -5.91652,5.74433 -4.83351,-0.13994 -4.83353,-0.13994 -17.12285,-7.37638 c -9.41756,-4.057 -17.18472,-7.3054 -17.26034,-7.21867 -0.0757,0.0867 -1.03313,3.34934 -2.12782,7.25025 l -1.99031,7.09255 4.94912,9.11743 4.94911,9.11742 -1.4117,9.09903 c -0.77644,5.00447 -1.43801,9.12533 -1.47016,9.15748 -0.0322,0.0322 -3.221,-0.30467 -7.08635,-0.74849 -5.33866,-0.61297 -7.60606,-0.78184 -9.43321,-0.70255 l -2.40528,0.10438 -0.14879,-5.9316 c -0.0819,-3.26238 -0.15537,-7.15778 -0.16341,-8.65644 l -0.0146,-2.72485 -9.97388,-8.62867 -9.97387,-8.62868 -3.8065,-5.59227 c -3.66508,-5.38452 -3.82758,-5.58436 -4.37416,-5.3793 -0.31222,0.11714 -6.029948,2.36791 -12.706067,5.00171 l -12.13841,4.78873 -11.590446,-0.72463 c -6.374746,-0.39855 -11.760617,-0.7596 -11.9686,-0.80235 -0.32378,-0.0666 -0.39672,0.22053 -0.507274,1.99642 -0.103819,1.66771 -1.065722,35.99267 -1.049208,37.44032 0.005,0.43987 -0.09672,0.44178 -9.532422,0.17974 z m 7.749374,-5.06175 c 0.01595,-1.77966 0.05332,-3.47077 0.08307,-3.75801 0.04671,-0.45101 -0.02694,-0.50595 -0.539889,-0.40272 -0.32669,0.0658 -2.7398,0.4869 -5.362463,0.9359 -2.622662,0.44899 -4.845503,0.89117 -4.939649,0.98261 -0.321775,0.31255 -2.402495,5.21286 -2.269781,5.34557 0.07282,0.0729 3.027549,0.13241 6.566064,0.13241 h 6.433662 z m 97.611267,1.90946 c 0,-0.10502 0.46317,-3.18597 1.02927,-6.84654 0.56609,-3.66057 1.00036,-6.74224 0.96504,-6.84814 -0.0653,-0.19569 -8.64459,4.98325 -9.15686,5.52755 -0.29099,0.30919 -3.34173,7.02127 -3.23177,7.11038 0.0466,0.0377 6.88348,0.86024 10.11048,1.21637 0.15611,0.0172 0.28384,-0.0546 0.28384,-0.15962 z m -111.375779,-2.2799 c 0.953601,-2.17005 0.953908,-2.16934 -1.039546,-2.39487 -1.234153,-0.13963 -1.398685,-0.0997 -2.467617,0.59826 -1.074503,0.70163 -1.688554,1.54851 -1.236907,1.7059 0.11024,0.0384 1.01789,0.51742 2.016999,1.06443 0.999109,0.54703 1.833256,0.97993 1.853655,0.96203 0.02041,-0.0179 0.413439,-0.88901 0.873416,-1.93575 z M 138.90361,178.8885 c 0.66119,-1.46745 1.43195,-3.15047 1.71278,-3.74006 l 0.51061,-1.07197 -3.13315,-2.84499 c -1.72324,-1.56475 -3.19422,-2.84499 -3.26884,-2.84499 -0.0746,0 -0.13567,2.96327 -0.13567,6.58504 v 6.58504 h 1.55605 1.55605 z m -97.2994,-17.6263 c 0.698365,-8.2259 1.220189,-15.00576 1.159614,-15.06633 -0.09238,-0.0924 -8.024252,-1.83457 -8.116249,-1.78268 -0.01694,0.01 -0.146854,2.31646 -0.288674,5.12646 l -0.257854,5.10908 0.965793,3.40605 c 0.921085,3.2484 0.986875,3.68985 1.421271,9.53696 0.250515,3.372 0.514156,6.65928 0.585865,7.30507 l 0.130385,1.17417 1.405092,0.2025 c 0.772802,0.11138 1.477073,0.14455 1.565048,0.0737 0.08797,-0.0708 0.731342,-6.85908 1.429709,-15.08499 z m 6.228712,14.24054 c 2.693661,-0.45718 4.916894,-0.84265 4.940517,-0.85662 0.115769,-0.0685 0.806476,-28.30647 0.695106,-28.41784 -0.07093,-0.0709 -2.05419,-0.0446 -4.407241,0.0584 l -4.278279,0.18744 -1.168016,13.62422 c -0.642409,7.49332 -1.220264,14.21177 -1.284121,14.92989 -0.0969,1.08968 -0.05651,1.30565 0.244182,1.30565 0.198157,0 2.564191,-0.37405 5.257852,-0.83122 z m 99.585898,-5.97781 c 2.49778,-1.52761 4.62843,-2.85846 4.73478,-2.95744 0.18122,-0.16864 -8.78871,-16.98604 -9.21379,-17.27458 -0.47692,-0.32375 -21.56983,-7.50006 -21.69032,-7.37957 -0.074,0.074 0.14365,1.13062 0.48367,2.34806 l 0.6182,2.21354 7.15152,7.83356 7.15153,7.83355 2.96892,5.16212 c 1.63289,2.83917 3.03307,5.12526 3.11149,5.08019 0.0785,-0.0451 2.18622,-1.33182 4.684,-2.85943 z m -10.13156,-2.44409 c -0.40781,-0.71811 -0.91338,-1.59258 -1.12349,-1.94327 l -0.38202,-0.63761 -0.47395,0.63761 -0.47395,0.63761 1.41048,1.29578 c 0.77575,0.71267 1.4946,1.30022 1.59743,1.30565 0.10283,0.005 -0.14669,-0.57767 -0.5545,-1.29577 z m -2.70403,-4.19528 c 0.005,-0.13506 -10.31328,-11.56023 -13.11042,-14.51685 -0.66884,-0.70696 -0.92793,-1.33594 -1.74384,-4.23351 -0.71308,-2.53237 -1.13595,-3.62723 -1.65261,-4.27876 -1.37492,-1.73382 -1.27545,-1.69757 -5.30468,-1.93282 -2.02233,-0.11807 -4.06436,-0.18394 -4.53785,-0.14639 l -0.86089,0.0683 3.28232,4.88201 3.28231,4.88202 9.70144,8.43831 9.70144,8.43831 0.61834,-0.71792 c 0.34008,-0.39486 0.62108,-0.79207 0.62444,-0.88269 z m 12.84779,-30.85764 4.32653,-15.23633 -1.09509,-5.10337 -1.0951,-5.10339 -2.23389,-4.43517 -2.23389,-4.435141 -11.88733,17.454231 c -6.53804,9.59978 -12.57936,18.46422 -13.42515,19.69873 l -1.5378,2.24458 0.90644,1.08265 c 0.74302,0.88745 1.20276,1.18903 2.55003,1.6727 2.54795,0.91475 21.1574,7.37117 21.28518,7.38476 0.0625,0.007 2.06048,-6.84427 4.44007,-15.22425 z m 49.1429,10.69338 c 2.76493,-2.68642 4.33925,-4.37371 4.20081,-4.50224 -0.1218,-0.11307 -4.51307,-1.33451 -9.7584,-2.7143 l -9.53695,-2.50872 -11.80766,0.20104 c -6.49421,0.11057 -12.87546,0.20543 -14.18055,0.2108 -1.30509,0.005 -2.27581,0.0956 -2.15717,0.20042 0.11865,0.10486 6.9597,3.09367 15.20236,6.64181 l 14.98665,6.45115 3.97373,0.12383 c 2.18556,0.0681 4.127,0.13937 4.31434,0.15836 0.18733,0.019 2.33061,-1.89898 4.76284,-4.26215 z m -117.966903,2.67432 c 0.258885,-1.17369 5.345648,-32.26161 5.345648,-32.67012 0,-0.27114 -5.344735,5.81635 -13.62277,15.5159 -7.492523,8.77915 -13.623423,16.01547 -13.624222,16.0807 -9.61e-4,0.0653 4.775541,0.43427 10.614087,0.82007 5.838547,0.38581 10.741322,0.71562 10.895052,0.73291 0.153731,0.0173 0.330224,-0.19847 0.392205,-0.47946 z m 13.830606,-4.73974 c 6.385916,-2.51319 11.729537,-4.68455 11.874707,-4.82525 0.22815,-0.22111 6.66793,-29.72316 6.66338,-30.5264 -8.8e-4,-0.16349 -0.0783,-0.2505 -0.17199,-0.19338 -0.0937,0.0571 -5.58593,1.09407 -12.205031,2.30434 -6.619086,1.21026 -12.066227,2.23141 -12.104744,2.26921 -0.03851,0.0378 -1.341018,7.769 -2.89445,17.18039 -1.553436,9.4114 -2.883949,17.39263 -2.956698,17.73607 -0.07275,0.34345 -0.0611,0.62445 0.02589,0.62445 0.08699,0 5.383008,-2.05624 11.768932,-4.56943 z m -39.426907,3.22772 c -0.113302,-0.43326 -9.280299,-24.58774 -9.387926,-24.73661 -0.06845,-0.0947 -22.227514,3.55887 -22.983663,3.7895 -0.495276,0.15108 -0.103885,0.74025 6.212378,9.3517 3.707526,5.05475 6.936698,9.39482 7.175932,9.6446 0.317071,0.33103 1.587579,0.70857 4.687002,1.39275 4.245555,0.93717 4.259747,0.93864 9.330821,0.96504 4.892806,0.0255 5.074649,0.0106 4.965456,-0.40698 z m 16.288585,-17.38931 c 7.44246,-8.74095 13.452018,-15.91851 13.354577,-15.95008 -0.209045,-0.0677 -36.841269,8.0304 -36.987564,8.1767 -0.08867,0.0887 8.838412,23.79781 9.15075,24.30318 0.06914,0.11187 0.311282,0.0142 0.5381,-0.21688 0.226815,-0.23116 6.501677,-7.57197 13.944137,-16.31292 z m 60.246949,-9.41535 c 7.14827,-10.48502 13.05109,-19.204957 13.11735,-19.377657 0.0913,-0.237795 -0.47442,-0.162208 -2.33062,0.311399 -1.34812,0.343968 -7.92611,1.971089 -14.61778,3.615828 -6.69166,1.64474 -12.27398,3.05823 -12.40515,3.1411 -0.36828,0.23263 -6.8583,30.79287 -6.55548,30.86843 0.42058,0.10494 6.0223,0.43625 7.97219,0.4715 l 1.82264,0.0329 z m 43.96104,14.09916 5.42506,-0.14469 -13.37253,-11.04731 c -7.35488,-6.07602 -13.40415,-11.01727 -13.4428,-10.98051 -0.0386,0.0368 0.30212,1.84043 0.75729,4.00815 l 0.82758,3.94131 -2.06295,7.24454 c -1.13463,3.98449 -2.06296,7.27287 -2.06296,7.30749 0,0.0862 17.25759,-0.15099 23.93131,-0.32898 z M 32.63476,118.97106 c 5.932213,-0.97126 10.811715,-1.77996 10.843339,-1.79709 0.08074,-0.0438 10.908979,-28.529968 10.996975,-28.930137 0.05466,-0.248571 -0.720153,-0.505331 -3.220543,-1.067225 -1.810887,-0.406946 -3.561117,-0.745016 -3.889398,-0.751261 -0.528273,-0.01006 -2.080705,1.944612 -13.50631,17.005803 -7.100185,9.35948 -12.950268,17.13972 -13.000181,17.28946 -0.06079,0.18237 0.08769,0.23002 0.449761,0.14433 0.297282,-0.0703 5.394143,-0.92261 11.326357,-1.89388 z m -12.961433,0.0844 c 0.174842,-0.281 5.719958,-7.63686 12.32248,-16.34636 6.602521,-8.709482 12.059731,-15.979108 12.127132,-16.154749 0.149172,-0.388738 0.250915,-0.376987 -11.03404,-1.274532 C 28.405573,84.90733 21.978391,84.3953 18.806273,84.141971 c -3.172118,-0.253329 -5.811227,-0.416858 -5.864687,-0.363396 -0.05346,0.05346 0.774819,1.613477 1.840619,3.466705 l 1.937819,3.369509 1.145256,14.130851 c 0.629891,7.772 1.145257,14.2861 1.145257,14.4758 0,0.498 0.295731,0.42394 0.66279,-0.16599 z m 45.546031,-6.66559 c 9.866208,-2.17326 18.101781,-4.02771 18.301273,-4.12099 0.289026,-0.13515 -1.140922,-2.13398 -7.039183,-9.839553 l -7.401893,-9.669896 -3.860197,-0.154625 c -2.123108,-0.08505 -4.933104,-0.215341 -6.244435,-0.289545 l -2.384238,-0.134917 -5.336154,14.020526 c -2.934884,7.71132 -5.373807,14.11979 -5.419828,14.24103 -0.05107,0.13455 0.214347,0.1579 0.681211,0.0599 0.420687,-0.0883 8.837236,-1.93867 18.703444,-4.11193 z m 32.901664,-6.79705 c 6.507148,-1.19122 11.957938,-2.20946 12.112868,-2.26277 0.16586,-0.057 -1.32822,-2.08513 -3.63312,-4.931641 -2.15315,-2.659079 -4.68118,-5.815306 -5.61785,-7.013835 L 99.279906,89.205427 87.585791,89.058083 c -6.431768,-0.08104 -12.64314,-0.184166 -13.803051,-0.229169 -1.202783,-0.04666 -2.079376,0.0068 -2.040152,0.124488 0.111581,0.334746 14.269767,18.805258 14.414778,18.805258 0.07286,0 5.45651,-0.97462 11.963656,-2.16584 z m 28.918238,-6.276739 c 7.77432,-1.901315 14.13512,-3.521658 14.13512,-3.600762 0,-0.07911 -5.37563,-1.809962 -11.94585,-3.846345 l -11.94586,-3.702522 -7.07129,0.400794 c -3.88921,0.220439 -7.40058,0.464769 -7.80306,0.542957 l -0.73177,0.142163 5.47405,6.755346 c 3.01073,3.715439 5.53694,6.757598 5.61379,6.760338 0.0769,0.003 6.50054,-1.55065 14.27487,-3.451979 z M 66.014106,86.546043 c 0,-0.05226 -0.366647,-0.321616 -0.814768,-0.598571 l -0.814767,-0.503552 1.474518,-1.501832 c 0.960995,-0.978797 1.764891,-2.085339 2.308289,-3.177301 l 0.833768,-1.675466 -0.770692,-0.822307 C 65.049226,74.872729 57.650346,66.902617 57.326817,66.521557 57.058072,66.205023 56.485422,63.847422 55.574645,59.307866 l -1.352957,-6.743484 0.176499,-3.454764 c 0.09707,-1.90012 0.147378,-3.494692 0.111795,-3.543494 -0.03558,-0.0488 -2.034344,0.61538 -4.441687,1.475957 -2.407343,0.860579 -4.479171,1.564688 -4.604059,1.564688 -0.124889,0 -0.436973,-1.021816 -0.693524,-2.270704 -0.256548,-1.248887 -0.568339,-2.270703 -0.692868,-2.270703 -0.124527,0 -3.001206,2.027457 -6.392616,4.50546 l -6.166203,4.50546 0.65884,1.171299 c 0.362361,0.644215 4.283126,7.761288 8.712807,15.81572 l 8.053963,14.644418 3.141816,0.75572 c 2.334071,0.56143 3.959108,0.800212 6.320796,0.928772 3.824613,0.208198 7.606859,0.284686 7.606859,0.153832 z M 46.486051,84.300939 c 0,-0.03818 -3.713642,-6.829608 -8.252539,-15.092065 l -8.252544,-15.022647 -6.677335,4.546207 c -3.672535,2.500414 -6.750274,4.618441 -6.83942,4.706729 -0.228187,0.225987 -4.313084,18.007672 -4.169741,18.151014 0.127091,0.127091 31.03288,2.703926 32.99946,2.751398 0.655668,0.01583 1.192119,-0.0024 1.192119,-0.04063 z"
       id="path34489"
       clip-path="url(#clipPath35134)"
       transform="translate(-3.5494062,-37.204439)" />
  </g>
</svg>
