<?xml version="1.0" encoding="UTF-8" standalone="no"?>
<!-- Created with Inkscape (http://www.inkscape.org/) -->

<svg
   width="11in"
   height="11in"
   viewBox="0 0 279.4 279.4"
   version="1.1"
   id="svg5"
   xmlns:xlink="http://www.w3.org/1999/xlink"
   xmlns="http://www.w3.org/2000/svg"
   xmlns:svg="http://www.w3.org/2000/svg">
  <defs
     id="defs2">
    <linearGradient
       id="linearGradient3291">
      <stop
         style="stop-color:#ffffff;stop-opacity:1;"
         offset="0"
         id="stop3289" />
    </linearGradient>
    <linearGradient
       id="linearGradient3168">
      <stop
         style="stop-color:#ffffff;stop-opacity:1;"
         offset="0"
         id="stop3166" />
    </linearGradient>
    <linearGradient
       id="linearGradient2702">
      <stop
         style="stop-color:#ffffff;stop-opacity:1;"
         offset="0"
         id="stop2700" />
    </linearGradient>
    <linearGradient
       id="linearGradient2696">
      <stop
         style="stop-color:#ffffff;stop-opacity:1;"
         offset="0"
         id="stop2694" />
    </linearGradient>
    <linearGradient
       id="linearGradient2610">
      <stop
         style="stop-color:#ffffff;stop-opacity:1;"
         offset="0"
         id="stop2608" />
    </linearGradient>
    <linearGradient
       id="linearGradient2394">
      <stop
         style="stop-color:#ffffff;stop-opacity:1;"
         offset="0"
         id="stop2392" />
    </linearGradient>
    <linearGradient
       id="linearGradient1934">
      <stop
         style="stop-color:#ffffff;stop-opacity:1;"
         offset="0"
         id="stop1932" />
    </linearGradient>
    <clipPath
       clipPathUnits="userSpaceOnUse"
       id="clipPath838">
      <path
         d="m 0,2507 h 9926 v 7675 H 0 V 2507"
         id="path836" />
    </clipPath>
    <clipPath
       clipPathUnits="userSpaceOnUse"
       id="clipPath1589">
      <path
         d="m 551,2288 h 8825 v 7783 H 551 V 2288"
         id="path1587" />
    </clipPath>
    <linearGradient
       xlink:href="#linearGradient1934"
       id="linearGradient1936"
       x1="1292"
       y1="6437.5"
       x2="7937"
       y2="6437.5"
       gradientUnits="userSpaceOnUse" />
    <linearGradient
       xlink:href="#linearGradient2610"
       id="linearGradient2612"
       x1="19.198586"
       y1="711.30127"
       x2="996.06653"
       y2="711.30127"
       gradientUnits="userSpaceOnUse"
       gradientTransform="matrix(0.26458333,0,0,0.26458333,2.2054455,-52.195545)" />
    <linearGradient
       xlink:href="#linearGradient2696"
       id="linearGradient2698"
       x1="19.198586"
       y1="711.30121"
       x2="996.06653"
       y2="711.30121"
       gradientUnits="userSpaceOnUse"
       gradientTransform="matrix(0.26458333,0,0,0.26458333,2.2054455,-52.195545)" />
    <linearGradient
       xlink:href="#linearGradient2702"
       id="linearGradient2704"
       x1="164.77296"
       y1="688.14062"
       x2="918.36786"
       y2="688.14062"
       gradientUnits="userSpaceOnUse"
       gradientTransform="matrix(0.26458333,0,0,0.26458333,2.2054455,-52.195545)" />
    <linearGradient
       xlink:href="#linearGradient3168"
       id="linearGradient3170"
       x1="181.24414"
       y1="287.37631"
       x2="610.53241"
       y2="287.37631"
       gradientUnits="userSpaceOnUse"
       gradientTransform="matrix(0.26458333,0,0,0.26458333,2.2054455,-52.195545)" />
    <linearGradient
       xlink:href="#linearGradient2610"
       id="linearGradient3293"
       x1="181.48973"
       y1="287.05365"
       x2="610.28687"
       y2="287.05365"
       gradientUnits="userSpaceOnUse"
       gradientTransform="matrix(0.26458333,0,0,0.26458333,2.2054455,-52.195545)" />
    <linearGradient
       xlink:href="#linearGradient1934"
       id="linearGradient3782"
       gradientUnits="userSpaceOnUse"
       x1="1292"
       y1="6437.5"
       x2="7937"
       y2="6437.5" />
    <linearGradient
       xlink:href="#linearGradient1934"
       id="linearGradient3784"
       gradientUnits="userSpaceOnUse"
       x1="1292"
       y1="6437.5"
       x2="7937"
       y2="6437.5" />
    <linearGradient
       xlink:href="#linearGradient1934"
       id="linearGradient3786"
       gradientUnits="userSpaceOnUse"
       x1="1292"
       y1="6437.5"
       x2="7937"
       y2="6437.5" />
    <linearGradient
       xlink:href="#linearGradient1934"
       id="linearGradient3788"
       gradientUnits="userSpaceOnUse"
       x1="1292"
       y1="6437.5"
       x2="7937"
       y2="6437.5" />
    <linearGradient
       xlink:href="#linearGradient1934"
       id="linearGradient3790"
       gradientUnits="userSpaceOnUse"
       x1="1292"
       y1="6437.5"
       x2="7937"
       y2="6437.5" />
    <linearGradient
       xlink:href="#linearGradient1934"
       id="linearGradient3792"
       gradientUnits="userSpaceOnUse"
       x1="1292"
       y1="6437.5"
       x2="7937"
       y2="6437.5" />
    <linearGradient
       xlink:href="#linearGradient1934"
       id="linearGradient3794"
       gradientUnits="userSpaceOnUse"
       x1="1292"
       y1="6437.5"
       x2="7937"
       y2="6437.5" />
    <linearGradient
       xlink:href="#linearGradient1934"
       id="linearGradient3796"
       gradientUnits="userSpaceOnUse"
       x1="1292"
       y1="6437.5"
       x2="7937"
       y2="6437.5" />
    <linearGradient
       xlink:href="#linearGradient1934"
       id="linearGradient3798"
       gradientUnits="userSpaceOnUse"
       x1="1292"
       y1="6437.5"
       x2="7937"
       y2="6437.5" />
    <linearGradient
       xlink:href="#linearGradient1934"
       id="linearGradient3800"
       gradientUnits="userSpaceOnUse"
       x1="1292"
       y1="6437.5"
       x2="7937"
       y2="6437.5" />
    <linearGradient
       xlink:href="#linearGradient1934"
       id="linearGradient3802"
       gradientUnits="userSpaceOnUse"
       x1="1292"
       y1="6437.5"
       x2="7937"
       y2="6437.5" />
    <linearGradient
       xlink:href="#linearGradient1934"
       id="linearGradient3804"
       gradientUnits="userSpaceOnUse"
       x1="1292"
       y1="6437.5"
       x2="7937"
       y2="6437.5" />
    <linearGradient
       xlink:href="#linearGradient1934"
       id="linearGradient3806"
       gradientUnits="userSpaceOnUse"
       x1="1292"
       y1="6437.5"
       x2="7937"
       y2="6437.5" />
    <linearGradient
       xlink:href="#linearGradient1934"
       id="linearGradient3808"
       gradientUnits="userSpaceOnUse"
       x1="1292"
       y1="6437.5"
       x2="7937"
       y2="6437.5" />
    <linearGradient
       xlink:href="#linearGradient1934"
       id="linearGradient3810"
       gradientUnits="userSpaceOnUse"
       x1="1292"
       y1="6437.5"
       x2="7937"
       y2="6437.5" />
    <linearGradient
       xlink:href="#linearGradient1934"
       id="linearGradient3812"
       gradientUnits="userSpaceOnUse"
       x1="1292"
       y1="6437.5"
       x2="7937"
       y2="6437.5" />
    <linearGradient
       xlink:href="#linearGradient1934"
       id="linearGradient3814"
       gradientUnits="userSpaceOnUse"
       x1="1292"
       y1="6437.5"
       x2="7937"
       y2="6437.5" />
    <linearGradient
       xlink:href="#linearGradient1934"
       id="linearGradient3816"
       gradientUnits="userSpaceOnUse"
       x1="1292"
       y1="6437.5"
       x2="7937"
       y2="6437.5" />
    <linearGradient
       xlink:href="#linearGradient1934"
       id="linearGradient3818"
       gradientUnits="userSpaceOnUse"
       x1="1292"
       y1="6437.5"
       x2="7937"
       y2="6437.5" />
    <linearGradient
       xlink:href="#linearGradient1934"
       id="linearGradient3820"
       gradientUnits="userSpaceOnUse"
       x1="1292"
       y1="6437.5"
       x2="7937"
       y2="6437.5" />
    <linearGradient
       xlink:href="#linearGradient1934"
       id="linearGradient3822"
       gradientUnits="userSpaceOnUse"
       x1="1292"
       y1="6437.5"
       x2="7937"
       y2="6437.5" />
    <linearGradient
       xlink:href="#linearGradient1934"
       id="linearGradient3824"
       gradientUnits="userSpaceOnUse"
       x1="1292"
       y1="6437.5"
       x2="7937"
       y2="6437.5" />
    <linearGradient
       xlink:href="#linearGradient1934"
       id="linearGradient3826"
       gradientUnits="userSpaceOnUse"
       x1="1292"
       y1="6437.5"
       x2="7937"
       y2="6437.5" />
    <linearGradient
       xlink:href="#linearGradient1934"
       id="linearGradient3828"
       gradientUnits="userSpaceOnUse"
       x1="1292"
       y1="6437.5"
       x2="7937"
       y2="6437.5" />
    <linearGradient
       xlink:href="#linearGradient1934"
       id="linearGradient3830"
       gradientUnits="userSpaceOnUse"
       x1="1292"
       y1="6437.5"
       x2="7937"
       y2="6437.5" />
    <linearGradient
       xlink:href="#linearGradient1934"
       id="linearGradient3832"
       gradientUnits="userSpaceOnUse"
       x1="1292"
       y1="6437.5"
       x2="7937"
       y2="6437.5" />
    <linearGradient
       xlink:href="#linearGradient1934"
       id="linearGradient3834"
       gradientUnits="userSpaceOnUse"
       x1="1292"
       y1="6437.5"
       x2="7937"
       y2="6437.5" />
    <linearGradient
       xlink:href="#linearGradient1934"
       id="linearGradient3836"
       gradientUnits="userSpaceOnUse"
       x1="1292"
       y1="6437.5"
       x2="7937"
       y2="6437.5" />
    <linearGradient
       xlink:href="#linearGradient1934"
       id="linearGradient3838"
       gradientUnits="userSpaceOnUse"
       x1="1292"
       y1="6437.5"
       x2="7937"
       y2="6437.5" />
    <linearGradient
       xlink:href="#linearGradient1934"
       id="linearGradient3840"
       gradientUnits="userSpaceOnUse"
       x1="1292"
       y1="6437.5"
       x2="7937"
       y2="6437.5" />
    <linearGradient
       xlink:href="#linearGradient1934"
       id="linearGradient3842"
       gradientUnits="userSpaceOnUse"
       x1="1292"
       y1="6437.5"
       x2="7937"
       y2="6437.5" />
    <linearGradient
       xlink:href="#linearGradient1934"
       id="linearGradient3844"
       gradientUnits="userSpaceOnUse"
       x1="1292"
       y1="6437.5"
       x2="7937"
       y2="6437.5" />
    <linearGradient
       xlink:href="#linearGradient1934"
       id="linearGradient3846"
       gradientUnits="userSpaceOnUse"
       x1="1292"
       y1="6437.5"
       x2="7937"
       y2="6437.5" />
    <linearGradient
       xlink:href="#linearGradient1934"
       id="linearGradient3848"
       gradientUnits="userSpaceOnUse"
       x1="1292"
       y1="6437.5"
       x2="7937"
       y2="6437.5" />
    <linearGradient
       xlink:href="#linearGradient1934"
       id="linearGradient3850"
       gradientUnits="userSpaceOnUse"
       x1="1292"
       y1="6437.5"
       x2="7937"
       y2="6437.5" />
    <linearGradient
       xlink:href="#linearGradient1934"
       id="linearGradient3852"
       gradientUnits="userSpaceOnUse"
       x1="1292"
       y1="6437.5"
       x2="7937"
       y2="6437.5" />
    <linearGradient
       xlink:href="#linearGradient1934"
       id="linearGradient3854"
       gradientUnits="userSpaceOnUse"
       x1="1292"
       y1="6437.5"
       x2="7937"
       y2="6437.5" />
    <linearGradient
       xlink:href="#linearGradient1934"
       id="linearGradient3856"
       gradientUnits="userSpaceOnUse"
       x1="1292"
       y1="6437.5"
       x2="7937"
       y2="6437.5" />
    <linearGradient
       xlink:href="#linearGradient1934"
       id="linearGradient3858"
       gradientUnits="userSpaceOnUse"
       x1="1292"
       y1="6437.5"
       x2="7937"
       y2="6437.5" />
    <linearGradient
       xlink:href="#linearGradient1934"
       id="linearGradient3860"
       gradientUnits="userSpaceOnUse"
       x1="1292"
       y1="6437.5"
       x2="7937"
       y2="6437.5" />
    <linearGradient
       xlink:href="#linearGradient1934"
       id="linearGradient3862"
       gradientUnits="userSpaceOnUse"
       x1="1292"
       y1="6437.5"
       x2="7937"
       y2="6437.5" />
    <linearGradient
       xlink:href="#linearGradient1934"
       id="linearGradient3864"
       gradientUnits="userSpaceOnUse"
       x1="1292"
       y1="6437.5"
       x2="7937"
       y2="6437.5" />
    <linearGradient
       xlink:href="#linearGradient1934"
       id="linearGradient3866"
       gradientUnits="userSpaceOnUse"
       x1="1292"
       y1="6437.5"
       x2="7937"
       y2="6437.5" />
    <linearGradient
       xlink:href="#linearGradient1934"
       id="linearGradient3868"
       gradientUnits="userSpaceOnUse"
       x1="1292"
       y1="6437.5"
       x2="7937"
       y2="6437.5" />
    <linearGradient
       xlink:href="#linearGradient1934"
       id="linearGradient3870"
       gradientUnits="userSpaceOnUse"
       x1="1292"
       y1="6437.5"
       x2="7937"
       y2="6437.5" />
    <linearGradient
       xlink:href="#linearGradient1934"
       id="linearGradient3872"
       gradientUnits="userSpaceOnUse"
       x1="1292"
       y1="6437.5"
       x2="7937"
       y2="6437.5" />
    <linearGradient
       xlink:href="#linearGradient1934"
       id="linearGradient3874"
       gradientUnits="userSpaceOnUse"
       x1="1292"
       y1="6437.5"
       x2="7937"
       y2="6437.5" />
    <linearGradient
       xlink:href="#linearGradient1934"
       id="linearGradient3876"
       gradientUnits="userSpaceOnUse"
       x1="1292"
       y1="6437.5"
       x2="7937"
       y2="6437.5" />
    <linearGradient
       xlink:href="#linearGradient1934"
       id="linearGradient3878"
       gradientUnits="userSpaceOnUse"
       x1="1292"
       y1="6437.5"
       x2="7937"
       y2="6437.5" />
    <linearGradient
       xlink:href="#linearGradient1934"
       id="linearGradient3880"
       gradientUnits="userSpaceOnUse"
       x1="1292"
       y1="6437.5"
       x2="7937"
       y2="6437.5" />
    <linearGradient
       xlink:href="#linearGradient1934"
       id="linearGradient3882"
       gradientUnits="userSpaceOnUse"
       x1="1292"
       y1="6437.5"
       x2="7937"
       y2="6437.5" />
    <linearGradient
       xlink:href="#linearGradient1934"
       id="linearGradient3884"
       gradientUnits="userSpaceOnUse"
       x1="1292"
       y1="6437.5"
       x2="7937"
       y2="6437.5" />
    <linearGradient
       xlink:href="#linearGradient1934"
       id="linearGradient3886"
       gradientUnits="userSpaceOnUse"
       x1="1292"
       y1="6437.5"
       x2="7937"
       y2="6437.5" />
    <linearGradient
       xlink:href="#linearGradient1934"
       id="linearGradient3888"
       gradientUnits="userSpaceOnUse"
       x1="1292"
       y1="6437.5"
       x2="7937"
       y2="6437.5" />
    <linearGradient
       xlink:href="#linearGradient1934"
       id="linearGradient3890"
       gradientUnits="userSpaceOnUse"
       x1="1292"
       y1="6437.5"
       x2="7937"
       y2="6437.5" />
    <linearGradient
       xlink:href="#linearGradient1934"
       id="linearGradient3892"
       gradientUnits="userSpaceOnUse"
       x1="1292"
       y1="6437.5"
       x2="7937"
       y2="6437.5" />
    <linearGradient
       xlink:href="#linearGradient1934"
       id="linearGradient3894"
       gradientUnits="userSpaceOnUse"
       x1="1292"
       y1="6437.5"
       x2="7937"
       y2="6437.5" />
    <linearGradient
       xlink:href="#linearGradient1934"
       id="linearGradient3896"
       gradientUnits="userSpaceOnUse"
       x1="1292"
       y1="6437.5"
       x2="7937"
       y2="6437.5" />
    <linearGradient
       xlink:href="#linearGradient1934"
       id="linearGradient3898"
       gradientUnits="userSpaceOnUse"
       x1="1292"
       y1="6437.5"
       x2="7937"
       y2="6437.5" />
    <linearGradient
       xlink:href="#linearGradient1934"
       id="linearGradient3900"
       gradientUnits="userSpaceOnUse"
       x1="1292"
       y1="6437.5"
       x2="7937"
       y2="6437.5" />
    <linearGradient
       xlink:href="#linearGradient1934"
       id="linearGradient3902"
       gradientUnits="userSpaceOnUse"
       x1="1292"
       y1="6437.5"
       x2="7937"
       y2="6437.5" />
    <linearGradient
       xlink:href="#linearGradient1934"
       id="linearGradient3904"
       gradientUnits="userSpaceOnUse"
       x1="1292"
       y1="6437.5"
       x2="7937"
       y2="6437.5" />
    <linearGradient
       xlink:href="#linearGradient1934"
       id="linearGradient3906"
       gradientUnits="userSpaceOnUse"
       x1="1292"
       y1="6437.5"
       x2="7937"
       y2="6437.5" />
    <linearGradient
       xlink:href="#linearGradient1934"
       id="linearGradient3908"
       gradientUnits="userSpaceOnUse"
       x1="1292"
       y1="6437.5"
       x2="7937"
       y2="6437.5" />
    <linearGradient
       xlink:href="#linearGradient1934"
       id="linearGradient3910"
       gradientUnits="userSpaceOnUse"
       x1="1292"
       y1="6437.5"
       x2="7937"
       y2="6437.5" />
    <linearGradient
       xlink:href="#linearGradient1934"
       id="linearGradient3912"
       gradientUnits="userSpaceOnUse"
       x1="1292"
       y1="6437.5"
       x2="7937"
       y2="6437.5" />
    <linearGradient
       xlink:href="#linearGradient1934"
       id="linearGradient3914"
       gradientUnits="userSpaceOnUse"
       x1="1292"
       y1="6437.5"
       x2="7937"
       y2="6437.5" />
  </defs>
  <g
     id="layer1">
    <g
       id="g1585"
       clip-path="url(#clipPath1589)"
       transform="matrix(0.03904872,0,0,-0.03904872,-43.686375,387.3497)"
       style="stroke:url(#linearGradient1936)">
      <g
         id="g1591"
         transform="rotate(90,-911.5,5526)"
         style="stroke:url(#linearGradient3784)">
        <path
           d="M 0,-3282.5 C 1812.8748,-3282.5 3282.5,-1812.8748 3282.5,0 3282.5,1812.8748 1812.8748,3282.5 0,3282.5 -1812.8748,3282.5 -3282.5,1812.8748 -3282.5,0 -3282.5,-1812.8748 -1812.8748,-3282.5 0,-3282.5"
           style="fill:none;stroke:url(#linearGradient3782);stroke-width:6;stroke-linecap:round;stroke-linejoin:round;stroke-miterlimit:10;stroke-dasharray:none;stroke-opacity:1"
           id="path1593" />
      </g>
      <g
         id="g1595"
         transform="rotate(90,-911.5,5526)"
         style="stroke:url(#linearGradient3788)">
        <path
           d="M 0,-3319.5 C 1833.8616,-3319.5 3320.5,-1833.3093 3320.5,0 3320.5,1833.3093 1833.8616,3319.5 0,3319.5 -1833.8616,3319.5 -3320.5,1833.3093 -3320.5,0 -3320.5,-1833.3093 -1833.8616,-3319.5 0,-3319.5"
           style="fill:none;stroke:url(#linearGradient3786);stroke-width:6;stroke-linecap:round;stroke-linejoin:round;stroke-miterlimit:10;stroke-dasharray:none;stroke-opacity:1"
           id="path1597" />
      </g>
      <path
         d="m 3166,4851 278,48"
         style="fill:none;stroke:url(#linearGradient3790);stroke-width:6;stroke-linecap:round;stroke-linejoin:round;stroke-miterlimit:10;stroke-dasharray:none;stroke-opacity:1"
         id="path1599" />
      <path
         d="m 3465,5660 -231,-4 -68,-805"
         style="fill:none;stroke:url(#linearGradient3792);stroke-width:6;stroke-linecap:round;stroke-linejoin:round;stroke-miterlimit:10;stroke-dasharray:none;stroke-opacity:1"
         id="path1601" />
      <path
         d="m 6485,6196 281,19 31,-143 -312,124"
         style="fill:none;stroke:url(#linearGradient3794);stroke-width:6;stroke-linecap:round;stroke-linejoin:round;stroke-miterlimit:10;stroke-dasharray:none;stroke-opacity:1"
         id="path1603" />
      <path
         d="m 6953,6052 263,159 -388,5 35,-163 90,-1"
         style="fill:none;stroke:url(#linearGradient3796);stroke-width:6;stroke-linecap:round;stroke-linejoin:round;stroke-miterlimit:10;stroke-dasharray:none;stroke-opacity:1"
         id="path1605" />
      <path
         d="m 6832,5994 -704,279 -70,-247 -120,-421 268,-493 -77,-501 -370,42 -154,-2 -4,467 -541,469"
         style="fill:none;stroke:url(#linearGradient3798);stroke-width:6;stroke-linecap:round;stroke-linejoin:round;stroke-miterlimit:10;stroke-dasharray:none;stroke-opacity:1"
         id="path1607" />
      <path
         d="m 5634,5194 -514,446"
         style="fill:none;stroke:url(#linearGradient3800);stroke-width:6;stroke-linecap:round;stroke-linejoin:round;stroke-miterlimit:10;stroke-dasharray:none;stroke-opacity:1"
         id="path1609" />
      <path
         d="m 5060,5587 -203,300"
         style="fill:none;stroke:url(#linearGradient3802);stroke-width:6;stroke-linecap:round;stroke-linejoin:round;stroke-miterlimit:10;stroke-dasharray:none;stroke-opacity:1"
         id="path1611" />
      <path
         d="m 5120,5640 -156,230"
         style="fill:none;stroke:url(#linearGradient3804);stroke-width:6;stroke-linecap:round;stroke-linejoin:round;stroke-miterlimit:10;stroke-dasharray:none;stroke-opacity:1"
         id="path1613" />
      <path
         d="m 4857,5887 -688,-271 -644,42 -30,-1076"
         style="fill:none;stroke:url(#linearGradient3806);stroke-width:6;stroke-linecap:round;stroke-linejoin:round;stroke-miterlimit:10;stroke-dasharray:none;stroke-opacity:1"
         id="path1615" />
      <path
         d="m 3465,5660 -21,-761"
         style="fill:none;stroke:url(#linearGradient3808);stroke-width:6;stroke-linecap:round;stroke-linejoin:round;stroke-miterlimit:10;stroke-dasharray:none;stroke-opacity:1"
         id="path1617" />
      <path
         d="m 3442,4838 -5,-195"
         style="fill:none;stroke:url(#linearGradient3810);stroke-width:6;stroke-linecap:round;stroke-linejoin:round;stroke-miterlimit:10;stroke-dasharray:none;stroke-opacity:1"
         id="path1619" />
      <path
         d="m 3495,4582 -374,5 -261,131 43,85 65,46 -28,383 -55,197 15,307 -414,563 -69,852 -132,227 73,564 381,318 398,354"
         style="fill:none;stroke:url(#linearGradient3812);stroke-width:6;stroke-linecap:round;stroke-linejoin:round;stroke-miterlimit:10;stroke-dasharray:none;stroke-opacity:1"
         id="path1621" />
      <path
         d="m 2834,8264 274,243"
         style="fill:none;stroke:url(#linearGradient3814);stroke-width:6;stroke-linecap:round;stroke-linejoin:round;stroke-miterlimit:10;stroke-dasharray:none;stroke-opacity:1"
         id="path1623" />
      <path
         d="m 3137,8614 48,-152"
         style="fill:none;stroke:url(#linearGradient3816);stroke-width:6;stroke-linecap:round;stroke-linejoin:round;stroke-miterlimit:10;stroke-dasharray:none;stroke-opacity:1"
         id="path1625" />
      <path
         d="m 3108,8507 41,-129"
         style="fill:none;stroke:url(#linearGradient3818);stroke-width:6;stroke-linecap:round;stroke-linejoin:round;stroke-miterlimit:10;stroke-dasharray:none;stroke-opacity:1"
         id="path1627" />
      <path
         d="m 3185,8462 259,122"
         style="fill:none;stroke:url(#linearGradient3820);stroke-width:6;stroke-linecap:round;stroke-linejoin:round;stroke-miterlimit:10;stroke-dasharray:none;stroke-opacity:1"
         id="path1629" />
      <path
         d="m 3149,8378 240,114"
         style="fill:none;stroke:url(#linearGradient3822);stroke-width:6;stroke-linecap:round;stroke-linejoin:round;stroke-miterlimit:10;stroke-dasharray:none;stroke-opacity:1"
         id="path1631" />
      <path
         d="m 3444,8584 14,-269"
         style="fill:none;stroke:url(#linearGradient3824);stroke-width:6;stroke-linecap:round;stroke-linejoin:round;stroke-miterlimit:10;stroke-dasharray:none;stroke-opacity:1"
         id="path1633" />
      <path
         d="m 3389,8492 9,-187"
         style="fill:none;stroke:url(#linearGradient3826);stroke-width:6;stroke-linecap:round;stroke-linejoin:round;stroke-miterlimit:10;stroke-dasharray:none;stroke-opacity:1"
         id="path1635" />
      <path
         d="m 3458,8315 101,-336"
         style="fill:none;stroke:url(#linearGradient3828);stroke-width:6;stroke-linecap:round;stroke-linejoin:round;stroke-miterlimit:10;stroke-dasharray:none;stroke-opacity:1"
         id="path1637" />
      <path
         d="m 3398,8305 109,-360"
         style="fill:none;stroke:url(#linearGradient3830);stroke-width:6;stroke-linecap:round;stroke-linejoin:round;stroke-miterlimit:10;stroke-dasharray:none;stroke-opacity:1"
         id="path1639" />
      <path
         d="m 3559,7979 377,-333"
         style="fill:none;stroke:url(#linearGradient3832);stroke-width:6;stroke-linecap:round;stroke-linejoin:round;stroke-miterlimit:10;stroke-dasharray:none;stroke-opacity:1"
         id="path1641" />
      <path
         d="m 3507,7945 358,-317"
         style="fill:none;stroke:url(#linearGradient3834);stroke-width:6;stroke-linecap:round;stroke-linejoin:round;stroke-miterlimit:10;stroke-dasharray:none;stroke-opacity:1"
         id="path1643" />
      <path
         d="m 3936,7646 -53,-137"
         style="fill:none;stroke:url(#linearGradient3836);stroke-width:6;stroke-linecap:round;stroke-linejoin:round;stroke-miterlimit:10;stroke-dasharray:none;stroke-opacity:1"
         id="path1645" />
      <path
         d="m 3865,7628 -35,-89"
         style="fill:none;stroke:url(#linearGradient3838);stroke-width:6;stroke-linecap:round;stroke-linejoin:round;stroke-miterlimit:10;stroke-dasharray:none;stroke-opacity:1"
         id="path1647" />
      <path
         d="m 3883,7509 -60,-76"
         style="fill:none;stroke:url(#linearGradient3840);stroke-width:6;stroke-linecap:round;stroke-linejoin:round;stroke-miterlimit:10;stroke-dasharray:none;stroke-opacity:1"
         id="path1649" />
      <path
         d="m 3830,7539 -49,-62"
         style="fill:none;stroke:url(#linearGradient3842);stroke-width:6;stroke-linecap:round;stroke-linejoin:round;stroke-miterlimit:10;stroke-dasharray:none;stroke-opacity:1"
         id="path1651" />
      <path
         d="M 3823,7433 3619,7284"
         style="fill:none;stroke:url(#linearGradient3844);stroke-width:6;stroke-linecap:round;stroke-linejoin:round;stroke-miterlimit:10;stroke-dasharray:none;stroke-opacity:1"
         id="path1653" />
      <path
         d="M 3781,7477 3525,7290"
         style="fill:none;stroke:url(#linearGradient3846);stroke-width:6;stroke-linecap:round;stroke-linejoin:round;stroke-miterlimit:10;stroke-dasharray:none;stroke-opacity:1"
         id="path1655" />
      <path
         d="m 3619,7284 282,-11 812,-12 484,29 770,-239 74,-147 760,-628 625,-8 -456,-277 -138,3"
         style="fill:none;stroke:url(#linearGradient3848);stroke-width:6;stroke-linecap:round;stroke-linejoin:round;stroke-miterlimit:10;stroke-dasharray:none;stroke-opacity:1"
         id="path1657" />
      <path
         d="m 2946,5447 198,-141 31,356 -217,47 -12,-262"
         style="fill:none;stroke:url(#linearGradient3850);stroke-width:6;stroke-linecap:round;stroke-linejoin:round;stroke-miterlimit:10;stroke-dasharray:none;stroke-opacity:1"
         id="path1659" />
      <path
         d="m 2999,5242 -32,116 171,-122 -32,-387 -79,12 -28,381"
         style="fill:none;stroke:url(#linearGradient3852);stroke-width:6;stroke-linecap:round;stroke-linejoin:round;stroke-miterlimit:10;stroke-dasharray:none;stroke-opacity:1"
         id="path1661" />
      <path
         d="m 5890,4897 245,150 -57,-370 -273,31 85,189"
         style="fill:none;stroke:url(#linearGradient3854);stroke-width:6;stroke-linecap:round;stroke-linejoin:round;stroke-miterlimit:10;stroke-dasharray:none;stroke-opacity:1"
         id="path1663" />
      <path
         d="m 5332,5658 -34,123"
         style="fill:none;stroke:url(#linearGradient3856);stroke-width:6;stroke-linecap:round;stroke-linejoin:round;stroke-miterlimit:10;stroke-dasharray:none;stroke-opacity:1"
         id="path1665" />
      <path
         d="m 5261,5619 -51,185"
         style="fill:none;stroke:url(#linearGradient3858);stroke-width:6;stroke-linecap:round;stroke-linejoin:round;stroke-miterlimit:10;stroke-dasharray:none;stroke-opacity:1"
         id="path1667" />
      <path
         d="m 5298,5781 587,-204 250,-460 -258,-158 -158,275 -387,424"
         style="fill:none;stroke:url(#linearGradient3860);stroke-width:6;stroke-linecap:round;stroke-linejoin:round;stroke-miterlimit:10;stroke-dasharray:none;stroke-opacity:1"
         id="path1669" />
      <path
         d="m 5641,5202 -380,417"
         style="fill:none;stroke:url(#linearGradient3862);stroke-width:6;stroke-linecap:round;stroke-linejoin:round;stroke-miterlimit:10;stroke-dasharray:none;stroke-opacity:1"
         id="path1671" />
      <path
         d="m 5745,5068 -54,94 -20,-26"
         style="fill:none;stroke:url(#linearGradient3864);stroke-width:6;stroke-linecap:round;stroke-linejoin:round;stroke-miterlimit:10;stroke-dasharray:none;stroke-opacity:1"
         id="path1673" />
      <path
         d="m 5641,5202 -7,-8"
         style="fill:none;stroke:url(#linearGradient3866);stroke-width:6;stroke-linecap:round;stroke-linejoin:round;stroke-miterlimit:10;stroke-dasharray:none;stroke-opacity:1"
         id="path1675" />
      <path
         d="m 5671,5136 74,-68"
         style="fill:none;stroke:url(#linearGradient3868);stroke-width:6;stroke-linecap:round;stroke-linejoin:round;stroke-miterlimit:10;stroke-dasharray:none;stroke-opacity:1"
         id="path1677" />
      <path
         d="m 6145,6331 36,125 -66,309 598,-493 -358,-24 -210,83"
         style="fill:none;stroke:url(#linearGradient3870);stroke-width:6;stroke-linecap:round;stroke-linejoin:round;stroke-miterlimit:10;stroke-dasharray:none;stroke-opacity:1"
         id="path1679" />
      <path
         d="m 5222,5910 49,-56"
         style="fill:none;stroke:url(#linearGradient3872);stroke-width:6;stroke-linecap:round;stroke-linejoin:round;stroke-miterlimit:10;stroke-dasharray:none;stroke-opacity:1"
         id="path1681" />
      <path
         d="m 5160,5859 50,-55"
         style="fill:none;stroke:url(#linearGradient3874);stroke-width:6;stroke-linecap:round;stroke-linejoin:round;stroke-miterlimit:10;stroke-dasharray:none;stroke-opacity:1"
         id="path1683" />
      <path
         d="m 5271,5854 615,-214 114,402 119,417 -59,274 -118,234 -720,-1057"
         style="fill:none;stroke:url(#linearGradient3876);stroke-width:6;stroke-linecap:round;stroke-linejoin:round;stroke-miterlimit:10;stroke-dasharray:none;stroke-opacity:1"
         id="path1685" />
      <path
         d="m 5664,4712 77,1 89,197 -169,154 3,-352"
         style="fill:none;stroke:url(#linearGradient3878);stroke-width:6;stroke-linecap:round;stroke-linejoin:round;stroke-miterlimit:10;stroke-dasharray:none;stroke-opacity:1"
         id="path1687" />
      <path
         d="m 5877,6978 -709,-1040 -263,14"
         style="fill:none;stroke:url(#linearGradient3880);stroke-width:6;stroke-linecap:round;stroke-linejoin:round;stroke-miterlimit:10;stroke-dasharray:none;stroke-opacity:1"
         id="path1689" />
      <path
         d="m 5160,5859 -196,11"
         style="fill:none;stroke:url(#linearGradient3882);stroke-width:6;stroke-linecap:round;stroke-linejoin:round;stroke-miterlimit:10;stroke-dasharray:none;stroke-opacity:1"
         id="path1691" />
      <path
         d="m 4905,5952 177,831 795,195"
         style="fill:none;stroke:url(#linearGradient3884);stroke-width:6;stroke-linecap:round;stroke-linejoin:round;stroke-miterlimit:10;stroke-dasharray:none;stroke-opacity:1"
         id="path1693" />
      <path
         d="m 4361,6649 -158,-955 639,252 176,824 -657,-121"
         style="fill:none;stroke:url(#linearGradient3886);stroke-width:6;stroke-linecap:round;stroke-linejoin:round;stroke-miterlimit:10;stroke-dasharray:none;stroke-opacity:1"
         id="path1695" />
      <path
         d="m 3517,5719 622,-41 159,958 -1042,-231 261,-686"
         style="fill:none;stroke:url(#linearGradient3888);stroke-width:6;stroke-linecap:round;stroke-linejoin:round;stroke-miterlimit:10;stroke-dasharray:none;stroke-opacity:1"
         id="path1697" />
      <path
         d="m 4774,7204 416,25 644,-200 -766,-188 -294,363"
         style="fill:none;stroke:url(#linearGradient3890);stroke-width:6;stroke-linecap:round;stroke-linejoin:round;stroke-miterlimit:10;stroke-dasharray:none;stroke-opacity:1"
         id="path1699" />
      <path
         d="m 3962,7212 738,-11 301,-373 -653,-121 -386,505"
         style="fill:none;stroke:url(#linearGradient3892);stroke-width:6;stroke-linecap:round;stroke-linejoin:round;stroke-miterlimit:10;stroke-dasharray:none;stroke-opacity:1"
         id="path1701" />
      <path
         d="m 2779,8214 10,10 570,-893"
         style="fill:none;stroke:url(#linearGradient3894);stroke-width:6;stroke-linecap:round;stroke-linejoin:round;stroke-miterlimit:10;stroke-dasharray:none;stroke-opacity:1"
         id="path1703" />
      <path
         d="m 2834,8264 611,-956"
         style="fill:none;stroke:url(#linearGradient3896);stroke-width:6;stroke-linecap:round;stroke-linejoin:round;stroke-miterlimit:10;stroke-dasharray:none;stroke-opacity:1"
         id="path1705" />
      <path
         d="m 3359,7331 -1009,81 65,498 363,304"
         style="fill:none;stroke:url(#linearGradient3898);stroke-width:6;stroke-linecap:round;stroke-linejoin:round;stroke-miterlimit:10;stroke-dasharray:none;stroke-opacity:1"
         id="path1707" />
      <path
         d="m 2540,6380 -64,789 -105,181 1008,-81 -839,-889"
         style="fill:none;stroke:url(#linearGradient3900);stroke-width:6;stroke-linecap:round;stroke-linejoin:round;stroke-miterlimit:10;stroke-dasharray:none;stroke-opacity:1"
         id="path1709" />
      <path
         d="m 2598,6354 843,893 51,-11"
         style="fill:none;stroke:url(#linearGradient3902);stroke-width:6;stroke-linecap:round;stroke-linejoin:round;stroke-miterlimit:10;stroke-dasharray:none;stroke-opacity:1"
         id="path1711" />
      <path
         d="m 3445,7308 80,-18"
         style="fill:none;stroke:url(#linearGradient3904);stroke-width:6;stroke-linecap:round;stroke-linejoin:round;stroke-miterlimit:10;stroke-dasharray:none;stroke-opacity:1"
         id="path1713" />
      <path
         d="m 3492,7236 -298,-783 -596,-99"
         style="fill:none;stroke:url(#linearGradient3906);stroke-width:6;stroke-linecap:round;stroke-linejoin:round;stroke-miterlimit:10;stroke-dasharray:none;stroke-opacity:1"
         id="path1715" />
      <path
         d="m 3263,6468 289,759 333,-14 397,-519 -1019,-226"
         style="fill:none;stroke:url(#linearGradient3908);stroke-width:6;stroke-linecap:round;stroke-linejoin:round;stroke-miterlimit:10;stroke-dasharray:none;stroke-opacity:1"
         id="path1717" />
      <path
         d="m 2948,5772 -380,516 628,105 256,-673 -242,-4 -262,56"
         style="fill:none;stroke:url(#linearGradient3910);stroke-width:6;stroke-linecap:round;stroke-linejoin:round;stroke-miterlimit:10;stroke-dasharray:none;stroke-opacity:1"
         id="path1719" />
      <path
         d="m 3046,4692 -105,53 9,17 57,41 82,-12 -43,-99"
         style="fill:none;stroke:url(#linearGradient3912);stroke-width:6;stroke-linecap:round;stroke-linejoin:round;stroke-miterlimit:10;stroke-dasharray:none;stroke-opacity:1"
         id="path1721" />
      <path
         d="m 3437,4643 -302,4 -35,18 54,123 288,50"
         style="fill:none;stroke:url(#linearGradient3914);stroke-width:6;stroke-linecap:round;stroke-linejoin:round;stroke-miterlimit:10;stroke-dasharray:none;stroke-opacity:1"
         id="path1723" />
    </g>
    <path
       style="fill:#999999;fill-opacity:0;stroke-width:0.259914"
       d="m 73.551907,205.59638 c -2.716104,-1.36649 -4.987446,-2.53021 -5.047425,-2.58606 -0.05998,-0.0559 0.17289,-0.7035 0.517486,-1.43923 0.434596,-0.92788 1.045284,-1.65384 1.993431,-2.3697 1.058519,-0.79919 1.366893,-1.19076 1.366893,-1.73567 0,-0.38702 -0.235413,-3.8345 -0.523139,-7.66106 -0.490889,-6.5285 -0.588719,-7.19151 -1.586892,-10.75493 l -1.063751,-3.79752 0.30191,-5.9478 c 0.256733,-5.05776 0.246822,-6.03181 -0.06622,-6.50925 -0.202472,-0.3088 -3.845311,-5.28662 -8.095199,-11.06184 l -7.727069,-10.50038 -1.350603,-16.66066 -1.350602,-16.66065 -2.55955,-4.37316 -2.559553,-4.37317 1.347152,-10.571903 c 0.740934,-5.814547 1.429081,-10.764925 1.529215,-11.000835 0.100135,-0.235914 3.749384,-3.409024 8.109445,-7.051355 4.360063,-3.642334 11.026862,-9.384554 14.815113,-12.760492 3.788252,-3.375935 6.952033,-6.138616 7.030628,-6.139291 0.0786,-7.94e-4 0.518795,1.226868 0.97822,2.727873 0.459425,1.501005 0.939027,2.7291 1.065792,2.7291 0.126762,0 2.362261,-0.998839 4.967779,-2.219642 2.605516,-1.220804 4.778714,-2.178235 4.829323,-2.127623 0.05061,0.05061 0.218605,2.341898 0.37332,5.091752 l 0.281305,4.999736 1.997934,6.585194 1.997938,6.585193 7.147642,6.306666 c 3.9312,3.468669 7.1839,6.456381 7.22821,6.639362 0.15026,0.620493 -1.93551,5.235477 -2.96019,6.549715 -0.6491,0.832536 -2.50032,2.377641 -5.09898,4.255836 -2.243946,1.621814 -4.086086,3.019824 -4.093653,3.106674 -0.0358,0.41096 4.139283,0.53651 36.766963,1.10564 4.27642,0.0746 8.68369,-0.0614 15.4649,-0.47723 l 9.48401,-0.58154 11.69615,3.61632 c 6.43287,1.98897 13.18923,4.08305 15.01412,4.6535 l 3.31798,1.03718 1.41599,2.82341 1.41599,2.8234 14.95908,12.36912 14.95907,12.36912 7.20808,8e-4 c 3.96444,5.3e-4 9.21779,0.077 11.6741,0.17021 l 4.46603,0.16941 -8.4493,5.13242 -8.44931,5.13243 -2.64454,-0.13639 -2.64453,-0.13636 -13.74527,-5.43469 c -7.5599,-2.98908 -13.77549,-5.40161 -13.81242,-5.36119 -0.141,0.15435 -7.40078,25.91696 -7.40078,26.26297 0,0.20036 2.32719,4.64765 5.17152,9.88287 l 5.17151,9.51859 -1.47514,9.56387 -1.47514,9.56385 -1.03225,-0.0812 c -0.56774,-0.0447 -3.54154,-0.36632 -6.60844,-0.71476 -3.16928,-0.36008 -7.06787,-0.63353 -9.03202,-0.63353 h -3.45583 v -9.06789 -9.06787 l -10.60036,-9.18588 -10.60035,-9.18589 -4.00046,-5.91827 c -2.20025,-3.25505 -4.01453,-5.91827 -4.03175,-5.91827 -0.0172,0 -6.10324,2.39292 -13.5245,5.3176 l -13.4932,5.31759 -12.54864,-0.81505 c -6.901745,-0.44828 -12.600971,-0.76272 -12.664939,-0.69874 -0.117268,0.11726 -1.191442,36.06368 -1.189553,39.80746 l 0.0011,2.01433 -7.082663,-0.0138 -7.082663,-0.0138 -4.938371,-2.48453 z m 17.284297,-3.33588 c 0,-2.21576 -0.08772,-4.03023 -0.194937,-4.03213 -0.107214,-0.002 -2.696374,0.43062 -5.753684,0.96118 l -5.558751,0.96465 -0.974055,2.11836 c -1.344679,2.92438 -1.397699,3.13605 -0.846923,3.38125 0.826611,0.368 3.48507,0.55531 8.454958,0.59573 l 4.873392,0.0396 z M 194.99251,197.712 c 0.60796,-3.9312 1.07694,-7.29635 1.04219,-7.47812 -0.038,-0.19897 -2.03978,0.87831 -5.0305,2.70728 l -4.96732,3.03775 -0.79999,1.84123 c -0.43999,1.01267 -1.17958,2.68709 -1.64352,3.72092 -0.46393,1.03384 -0.7677,1.95552 -0.67503,2.04819 0.1888,0.1888 9.64328,1.3749 10.45151,1.31118 0.47349,-0.0373 0.6109,-0.64605 1.62266,-7.18843 z m -118.747542,4.81435 c 0.448681,-1.06889 0.815779,-2.05776 0.815779,-2.19749 0,-0.13974 -0.438605,-0.32574 -0.974677,-0.41332 -0.536072,-0.0876 -1.297024,-0.2193 -1.691,-0.29269 -0.542282,-0.10101 -1.025159,0.0933 -1.987446,0.79966 -0.69912,0.5132 -1.336495,1.10343 -1.416386,1.31163 -0.102561,0.26727 0.481634,0.72355 1.987449,1.55229 1.172988,0.64556 2.204209,1.17591 2.291604,1.17855 0.08739,0.003 0.526002,-0.86975 0.974677,-1.93863 z m 104.087342,0.93984 c 0.29122,-0.11472 1.12216,-1.62634 2.14429,-3.90085 0.91785,-2.04245 1.66882,-3.81367 1.66882,-3.93606 0,-0.26861 -6.51799,-6.23453 -6.81146,-6.23453 -0.24829,0 -0.28067,13.87429 -0.0329,14.122 0.22663,0.22664 2.42053,0.19004 3.0313,-0.0506 z M 77.845864,197.90694 c 0.003,-0.17869 0.290428,-3.65738 0.638829,-7.73041 0.348398,-4.07304 0.550664,-7.47571 0.449476,-7.56151 -0.918649,-0.77887 -6.573049,-4.6565 -6.790168,-4.6565 -0.356045,0 -0.387662,-0.20569 0.361608,2.35258 0.520809,1.77823 0.749539,3.62966 1.202492,9.73343 0.307642,4.14563 0.586883,7.5701 0.620533,7.60992 0.09271,0.10971 2.262071,0.51652 2.92705,0.5489 0.321644,0.0157 0.587225,-0.11772 0.59018,-0.29641 z m 7.922011,-0.72665 c 2.716104,-0.45593 5.014598,-0.90294 5.107763,-0.99335 0.157144,-0.15249 1.084784,-29.92727 0.936958,-30.07394 -0.03668,-0.0364 -2.201238,-1.2e-4 -4.810127,0.0806 l -4.743434,0.14678 -0.0011,0.67575 c -0.0011,0.75648 -2.227331,27.3641 -2.489665,29.7568 -0.165582,1.51024 -0.159777,1.52821 0.446701,1.38322 0.337955,-0.0808 2.836728,-0.51994 5.552832,-0.97588 z m 105.471445,-6.47468 c 2.67418,-1.63775 4.86215,-3.05424 4.86215,-3.14775 0,-0.13051 -9.50668,-17.79956 -9.74781,-18.1172 -0.15274,-0.20121 -23.11152,-8.07926 -23.26633,-7.98359 -0.10023,0.062 0.13284,1.2396 0.51793,2.61701 l 0.70017,2.50437 7.53727,8.25464 7.53727,8.25464 3.09636,5.37249 c 2.15567,3.74029 3.21857,5.3498 3.4986,5.2978 0.22123,-0.0411 2.5902,-1.41466 5.26439,-3.05241 z m -10.47279,-1.33049 c 0,-0.15375 -0.47814,-1.09825 -1.06255,-2.09888 -1.02649,-1.7576 -1.07941,-1.80408 -1.55948,-1.36962 -0.74098,0.67058 -0.62816,0.98582 0.86761,2.42443 1.3813,1.32851 1.75442,1.55055 1.75442,1.04407 z m -4.02867,-5.115 c 0,-0.15559 -3.31545,-3.92174 -7.36767,-8.36921 l -7.36767,-8.08631 -1.03041,-3.69514 c -0.9511,-3.41069 -1.11423,-3.77823 -2.1192,-4.77439 l -1.08879,-1.07923 -3.9941,-0.18159 c -2.24392,-0.10202 -3.95229,-0.0825 -3.89871,0.0445 0.0525,0.12434 1.48608,2.27069 3.18583,4.76967 l 3.09045,4.54361 9.99614,8.65517 c 5.49787,4.76035 10.13069,8.61033 10.29514,8.55551 0.16444,-0.0548 0.29899,-0.22697 0.29899,-0.38256 z m -97.342588,-4.28726 c -0.0026,-0.1787 0.25141,-3.33607 0.564441,-7.01639 0.313031,-3.68033 0.51036,-6.75029 0.438512,-6.82214 -0.192651,-0.19265 -8.564364,-2.0093 -8.68831,-1.88535 -0.212826,0.21282 -0.63559,10.42619 -0.439635,10.62088 0.610622,0.60669 7.531114,5.41187 7.804804,5.41919 0.178691,0.005 0.322776,-0.1375 0.320188,-0.31619 z M 190.9459,151.2007 l 4.57831,-16.10133 -1.22401,-5.53653 -1.22402,-5.53653 -2.26664,-4.50167 c -1.24665,-2.47591 -2.37077,-4.46426 -2.49804,-4.41854 -0.24582,0.0883 -28.3414,41.25624 -28.3334,41.51639 0.003,0.0842 0.49968,0.66944 1.10464,1.30061 1.08142,1.12828 1.29666,1.21638 12.79606,5.23734 6.43288,2.24936 11.87449,4.10141 12.09246,4.11567 0.30603,0.02 1.43937,-3.64236 4.97464,-16.07541 z m -72.72386,14.087 c 0.34519,-1.20894 6.16785,-37.03469 6.03994,-37.1626 -0.23895,-0.23895 -40.963064,8.85629 -40.965678,9.14918 -0.0034,0.38484 9.911921,26.47118 10.171647,26.76062 0.213127,0.23752 18.717961,1.60591 22.627401,1.67326 1.69683,0.0292 2.01633,-0.0339 2.12669,-0.42046 z m 14.72027,-4.91043 c 6.79026,-2.66702 12.42559,-4.91936 12.52296,-5.00519 0.27806,-0.24512 7.05134,-32.26137 6.86464,-32.44808 -0.17953,-0.17952 -24.99292,4.29284 -25.6017,4.61445 -0.26042,0.13758 -1.20606,5.24556 -3.27758,17.70423 -3.44707,20.7316 -3.33171,19.97956 -3.06511,19.98189 0.11598,0.001 5.76653,-2.18027 12.55679,-4.8473 z m -41.635795,3.67479 c 0.106896,-0.0973 -9.813962,-26.2017 -10.040774,-26.41997 -0.161628,-0.15554 -24.723351,3.83693 -24.940458,4.05404 -0.07906,0.0791 14.108213,19.53043 14.780559,20.26478 0.119361,0.13037 2.472976,0.73975 5.230254,1.35417 l 5.013238,1.11714 4.938371,-0.14848 c 2.716104,-0.0817 4.974569,-0.18143 5.01881,-0.22168 z m 80.860145,-28.69105 c 7.58899,-11.13468 13.79816,-20.38715 13.79816,-20.56103 0,-0.17388 -0.1462,-0.26094 -0.32489,-0.19346 -0.1787,0.0675 -7.16714,1.79341 -15.52988,3.8354 -8.36274,2.04199 -15.29837,3.79447 -15.4125,3.89439 -0.22563,0.19752 -7.18386,32.55312 -7.03748,32.72406 0.11868,0.13859 5.33784,0.4555 8.32693,0.5056 l 2.38151,0.0399 z m 60.98554,12.77235 c 2.77763,-1.6797 5.0514,-3.12581 5.05281,-3.2136 0.006,-0.34393 -2.68519,-0.49018 -9.01826,-0.49018 -6.17115,0 -6.60034,0.0301 -6.47757,0.45485 0.0723,0.25017 0.37553,1.62447 0.67381,3.05399 0.29827,1.42953 0.5942,2.74535 0.65761,2.92404 0.0785,0.22125 0.74467,0.32489 2.08832,0.32489 h 1.97303 z m -11.31921,1.80723 c 0,-0.52309 -1.01884,-5.31691 -1.16002,-5.45808 -0.0497,-0.0497 -2.57223,0.0885 -5.60554,0.30722 -5.01522,0.36161 -6.31917,0.56106 -5.58037,0.85359 0.14295,0.0566 2.83306,1.13954 5.97802,2.40653 3.14497,1.26699 5.86432,2.3158 6.04301,2.33069 0.17869,0.0149 0.3249,-0.18309 0.3249,-0.43995 z m -10.19366,-6.78609 c 6.12155,-0.42447 7.41528,-0.58884 7.05302,-0.89608 -0.0596,-0.0505 -5.19612,-4.27588 -11.41456,-9.38968 -6.21845,-5.1138 -11.51167,-9.4773 -11.76272,-9.69666 -0.25104,-0.21935 -0.51583,-0.33944 -0.58842,-0.26685 -0.0726,0.0726 0.45619,2.85834 1.17507,6.19056 l 1.30705,6.05858 -0.69277,2.44119 c -0.4085,1.43947 -0.59673,2.53427 -0.45872,2.66801 0.27263,0.26419 7.90567,3.35987 8.29141,3.36269 0.14295,0.001 3.33374,-0.21125 7.09064,-0.47176 z M 69.496842,137.55082 c 6.346886,-1.06234 11.623807,-2.02528 11.726492,-2.13986 0.441624,-0.4928 11.694588,-30.5899 11.507255,-30.77724 -0.113921,-0.11392 -0.68236,-0.24172 -1.263197,-0.28401 l -1.056066,-0.0769 -16.422074,17.38359 c -9.032139,9.56098 -16.422073,17.48511 -16.422073,17.60919 0,0.3046 -0.956366,0.44207 11.929663,-1.71479 z m 2.51774,-16.42084 c 8.993841,-9.52686 16.389985,-17.41745 16.43588,-17.53462 0.04589,-0.11718 -0.188032,-0.26968 -0.51983,-0.33889 -0.331798,-0.0692 -8.966012,-0.77715 -19.187138,-1.5732 -10.221129,-0.79604 -18.905514,-1.50106 -19.298634,-1.56669 -0.434774,-0.0726 -0.714764,-0.002 -0.714764,0.17974 0,0.1645 0.915696,1.88675 2.034881,3.82724 l 2.034879,3.52816 1.102682,13.90541 c 1.302571,16.42609 1.346357,16.89443 1.579539,16.89443 0.09904,0 7.538667,-7.79471 16.532505,-17.32158 z m 32.077248,9.38815 c 10.79294,-2.38183 19.66559,-4.37159 19.71699,-4.42169 0.0514,-0.0501 -3.43197,-4.70295 -7.74082,-10.33965 l -7.83429,-10.24855 -3.04562,-0.15853 c -1.67509,-0.0872 -4.68827,-0.23271 -6.695955,-0.32337 l -3.65034,-0.16485 -5.641597,14.81346 c -3.102877,8.1474 -5.641594,14.9528 -5.641594,15.1231 0,0.17096 0.203735,0.25166 0.454851,0.18017 0.250166,-0.0712 9.285435,-2.07826 20.078375,-4.46009 z m 35.41716,-7.30248 c 6.82811,-1.25689 12.38378,-2.37578 12.34592,-2.48642 -0.0378,-0.11064 -2.70045,-3.4661 -5.91689,-7.45659 l -5.84807,-7.25544 -6.23794,-0.15072 c -15.02545,-0.36304 -23.00241,-0.4214 -23.00241,-0.16828 0,0.14255 3.40701,4.71371 7.57113,10.15811 6.43765,8.41695 7.65365,9.87989 8.12232,9.77177 0.30315,-0.0699 6.13783,-1.15553 12.96594,-2.41243 z m 29.77403,-6.42038 c 8.19379,-2.02694 14.89703,-3.79626 14.8961,-3.93182 -0.001,-0.13555 -5.64123,-1.99775 -12.53398,-4.1382 l -12.53228,-3.89175 -8.27686,0.48134 c -4.55227,0.26473 -8.27686,0.58436 -8.27686,0.71027 0,0.27863 11.47777,14.49995 11.68166,14.47394 0.0794,-0.0101 6.84844,-1.67683 15.04222,-3.70378 z M 99.158377,99.234478 c 3.080673,-2.250623 5.324013,-4.091387 5.960693,-4.891021 1.02295,-1.284775 2.47505,-4.605745 2.20496,-5.042763 -0.0791,-0.127989 -3.20718,-2.939754 -6.95128,-6.24836 L 93.565302,77.036685 91.424408,70.121533 89.283513,63.20638 89.109751,59.372647 c -0.09557,-2.108554 -0.27213,-3.833736 -0.392356,-3.833736 -0.120224,0 -2.216119,0.946412 -4.657543,2.103139 -2.441421,1.156726 -4.490913,2.051174 -4.554423,1.987664 -0.06351,-0.06351 -0.443154,-1.090661 -0.843648,-2.282556 -0.400497,-1.191895 -0.839766,-2.204278 -0.976157,-2.249741 -0.275044,-0.09168 -10.891488,9.221631 -10.891488,9.554599 0,0.115099 5.377238,8.623564 11.94942,18.907701 l 11.949416,18.698433 1.176253,0.25679 c 2.161596,0.47189 2.13895,0.48208 7.289152,-3.280462 z M 87.646801,100.95893 C 87.466072,100.49309 65.880289,66.652186 65.508383,66.251639 c -0.247055,-0.266086 -1.674251,0.803921 -7.049521,5.285216 -3.706863,3.090362 -7.051749,5.930609 -7.433077,6.311654 -0.671608,0.671113 -0.732256,0.995815 -1.936131,10.366187 -0.68354,5.320353 -1.180772,9.735404 -1.104953,9.811221 0.136004,0.136006 36.45949,3.168893 38.655704,3.227613 0.808781,0.0216 1.096417,-0.0626 1.006396,-0.2946 z"
       id="path2314" />
    <path
       style="fill:#ffffff;fill-opacity:1;stroke:url(#linearGradient2704);stroke-width:0.259914"
       d="m 73.551907,205.59638 c -2.716104,-1.36649 -4.987446,-2.53021 -5.047425,-2.58606 -0.05998,-0.0559 0.17289,-0.7035 0.517486,-1.43923 0.434596,-0.92788 1.045284,-1.65384 1.993431,-2.3697 1.058519,-0.79919 1.366893,-1.19076 1.366893,-1.73567 0,-0.38702 -0.235413,-3.8345 -0.523139,-7.66106 -0.490889,-6.5285 -0.588719,-7.19151 -1.586892,-10.75493 l -1.063751,-3.79752 0.30191,-5.9478 c 0.256733,-5.05776 0.246822,-6.03181 -0.06622,-6.50925 -0.202472,-0.3088 -3.845311,-5.28662 -8.095199,-11.06184 l -7.727069,-10.50038 -1.350603,-16.66066 -1.350602,-16.66065 -2.55955,-4.37316 -2.559553,-4.37317 1.347152,-10.571903 c 0.740934,-5.814547 1.429081,-10.764925 1.529215,-11.000835 0.100135,-0.235914 3.749384,-3.409024 8.109445,-7.051355 4.360063,-3.642334 11.026862,-9.384554 14.815113,-12.760492 3.788252,-3.375935 6.952033,-6.138616 7.030628,-6.139291 0.0786,-7.94e-4 0.518795,1.226868 0.97822,2.727873 0.459425,1.501005 0.939027,2.7291 1.065792,2.7291 0.126762,0 2.362261,-0.998839 4.967779,-2.219642 2.605516,-1.220804 4.778714,-2.178235 4.829323,-2.127623 0.05061,0.05061 0.218605,2.341898 0.37332,5.091752 l 0.281305,4.999736 1.997934,6.585194 1.997938,6.585193 7.147642,6.306666 c 3.9312,3.468669 7.1839,6.456381 7.22821,6.639362 0.15026,0.620493 -1.93551,5.235477 -2.96019,6.549715 -0.6491,0.832536 -2.50032,2.377641 -5.09898,4.255836 -2.243946,1.621814 -4.086086,3.019824 -4.093653,3.106674 -0.0358,0.41096 4.139283,0.53651 36.766963,1.10564 4.27642,0.0746 8.68369,-0.0614 15.4649,-0.47723 l 9.48401,-0.58154 11.69615,3.61632 c 6.43287,1.98897 13.18923,4.08305 15.01412,4.6535 l 3.31798,1.03718 1.41599,2.82341 1.41599,2.8234 14.95908,12.36912 14.95907,12.36912 7.20808,8e-4 c 3.96444,5.3e-4 9.21779,0.077 11.6741,0.17021 l 4.46603,0.16941 -8.4493,5.13242 -8.44931,5.13243 -2.64454,-0.13639 -2.64453,-0.13636 -13.74527,-5.43469 c -7.5599,-2.98908 -13.77549,-5.40161 -13.81242,-5.36119 -0.141,0.15435 -7.40078,25.91696 -7.40078,26.26297 0,0.20036 2.32719,4.64765 5.17152,9.88287 l 5.17151,9.51859 -1.47514,9.56387 -1.47514,9.56385 -1.03225,-0.0812 c -0.56774,-0.0447 -3.54154,-0.36632 -6.60844,-0.71476 -3.16928,-0.36008 -7.06787,-0.63353 -9.03202,-0.63353 h -3.45583 v -9.06789 -9.06787 l -10.60036,-9.18588 -10.60035,-9.18589 -4.00046,-5.91827 c -2.20025,-3.25505 -4.01453,-5.91827 -4.03175,-5.91827 -0.0172,0 -6.10324,2.39292 -13.5245,5.3176 l -13.4932,5.31759 -12.54864,-0.81505 c -6.901745,-0.44828 -12.600971,-0.76272 -12.664939,-0.69874 -0.117268,0.11726 -1.191442,36.06368 -1.189553,39.80746 l 0.0011,2.01433 -7.082663,-0.0138 -7.082663,-0.0138 -4.938371,-2.48453 z m 17.284297,-3.33588 c 0,-2.21576 -0.08772,-4.03023 -0.194937,-4.03213 -0.107214,-0.002 -2.696374,0.43062 -5.753684,0.96118 l -5.558751,0.96465 -0.974055,2.11836 c -1.344679,2.92438 -1.397699,3.13605 -0.846923,3.38125 0.826611,0.368 3.48507,0.55531 8.454958,0.59573 l 4.873392,0.0396 z M 194.99251,197.712 c 0.60796,-3.9312 1.07694,-7.29635 1.04219,-7.47812 -0.038,-0.19897 -2.03978,0.87831 -5.0305,2.70728 l -4.96732,3.03775 -0.79999,1.84123 c -0.43999,1.01267 -1.17958,2.68709 -1.64352,3.72092 -0.46393,1.03384 -0.7677,1.95552 -0.67503,2.04819 0.1888,0.1888 9.64328,1.3749 10.45151,1.31118 0.47349,-0.0373 0.6109,-0.64605 1.62266,-7.18843 z m -118.747542,4.81435 c 0.448681,-1.06889 0.815779,-2.05776 0.815779,-2.19749 0,-0.13974 -0.438605,-0.32574 -0.974677,-0.41332 -0.536072,-0.0876 -1.297024,-0.2193 -1.691,-0.29269 -0.542282,-0.10101 -1.025159,0.0933 -1.987446,0.79966 -0.69912,0.5132 -1.336495,1.10343 -1.416386,1.31163 -0.102561,0.26727 0.481634,0.72355 1.987449,1.55229 1.172988,0.64556 2.204209,1.17591 2.291604,1.17855 0.08739,0.003 0.526002,-0.86975 0.974677,-1.93863 z m 104.087342,0.93984 c 0.29122,-0.11472 1.12216,-1.62634 2.14429,-3.90085 0.91785,-2.04245 1.66882,-3.81367 1.66882,-3.93606 0,-0.26861 -6.51799,-6.23453 -6.81146,-6.23453 -0.24829,0 -0.28067,13.87429 -0.0329,14.122 0.22663,0.22664 2.42053,0.19004 3.0313,-0.0506 z M 77.845864,197.90694 c 0.003,-0.17869 0.290428,-3.65738 0.638829,-7.73041 0.348398,-4.07304 0.550664,-7.47571 0.449476,-7.56151 -0.918649,-0.77887 -6.573049,-4.6565 -6.790168,-4.6565 -0.356045,0 -0.387662,-0.20569 0.361608,2.35258 0.520809,1.77823 0.749539,3.62966 1.202492,9.73343 0.307642,4.14563 0.586883,7.5701 0.620533,7.60992 0.09271,0.10971 2.262071,0.51652 2.92705,0.5489 0.321644,0.0157 0.587225,-0.11772 0.59018,-0.29641 z m 7.922011,-0.72665 c 2.716104,-0.45593 5.014598,-0.90294 5.107763,-0.99335 0.157144,-0.15249 1.084784,-29.92727 0.936958,-30.07394 -0.03668,-0.0364 -2.201238,-1.2e-4 -4.810127,0.0806 l -4.743434,0.14678 -0.0011,0.67575 c -0.0011,0.75648 -2.227331,27.3641 -2.489665,29.7568 -0.165582,1.51024 -0.159777,1.52821 0.446701,1.38322 0.337955,-0.0808 2.836728,-0.51994 5.552832,-0.97588 z m 105.471445,-6.47468 c 2.67418,-1.63775 4.86215,-3.05424 4.86215,-3.14775 0,-0.13051 -9.50668,-17.79956 -9.74781,-18.1172 -0.15274,-0.20121 -23.11152,-8.07926 -23.26633,-7.98359 -0.10023,0.062 0.13284,1.2396 0.51793,2.61701 l 0.70017,2.50437 7.53727,8.25464 7.53727,8.25464 3.09636,5.37249 c 2.15567,3.74029 3.21857,5.3498 3.4986,5.2978 0.22123,-0.0411 2.5902,-1.41466 5.26439,-3.05241 z m -10.47279,-1.33049 c 0,-0.15375 -0.47814,-1.09825 -1.06255,-2.09888 -1.02649,-1.7576 -1.07941,-1.80408 -1.55948,-1.36962 -0.74098,0.67058 -0.62816,0.98582 0.86761,2.42443 1.3813,1.32851 1.75442,1.55055 1.75442,1.04407 z m -4.02867,-5.115 c 0,-0.15559 -3.31545,-3.92174 -7.36767,-8.36921 l -7.36767,-8.08631 -1.03041,-3.69514 c -0.9511,-3.41069 -1.11423,-3.77823 -2.1192,-4.77439 l -1.08879,-1.07923 -3.9941,-0.18159 c -2.24392,-0.10202 -3.95229,-0.0825 -3.89871,0.0445 0.0525,0.12434 1.48608,2.27069 3.18583,4.76967 l 3.09045,4.54361 9.99614,8.65517 c 5.49787,4.76035 10.13069,8.61033 10.29514,8.55551 0.16444,-0.0548 0.29899,-0.22697 0.29899,-0.38256 z m -97.342588,-4.28726 c -0.0026,-0.1787 0.25141,-3.33607 0.564441,-7.01639 0.313031,-3.68033 0.51036,-6.75029 0.438512,-6.82214 -0.192651,-0.19265 -8.564364,-2.0093 -8.68831,-1.88535 -0.212826,0.21282 -0.63559,10.42619 -0.439635,10.62088 0.610622,0.60669 7.531114,5.41187 7.804804,5.41919 0.178691,0.005 0.322776,-0.1375 0.320188,-0.31619 z M 190.9459,151.2007 l 4.57831,-16.10133 -1.22401,-5.53653 -1.22402,-5.53653 -2.26664,-4.50167 c -1.24665,-2.47591 -2.37077,-4.46426 -2.49804,-4.41854 -0.24582,0.0883 -28.3414,41.25624 -28.3334,41.51639 0.003,0.0842 0.49968,0.66944 1.10464,1.30061 1.08142,1.12828 1.29666,1.21638 12.79606,5.23734 6.43288,2.24936 11.87449,4.10141 12.09246,4.11567 0.30603,0.02 1.43937,-3.64236 4.97464,-16.07541 z m -72.72386,14.087 c 0.34519,-1.20894 6.16785,-37.03469 6.03994,-37.1626 -0.23895,-0.23895 -40.963064,8.85629 -40.965678,9.14918 -0.0034,0.38484 9.911921,26.47118 10.171647,26.76062 0.213127,0.23752 18.717961,1.60591 22.627401,1.67326 1.69683,0.0292 2.01633,-0.0339 2.12669,-0.42046 z m 14.72027,-4.91043 c 6.79026,-2.66702 12.42559,-4.91936 12.52296,-5.00519 0.27806,-0.24512 7.05134,-32.26137 6.86464,-32.44808 -0.17953,-0.17952 -24.99292,4.29284 -25.6017,4.61445 -0.26042,0.13758 -1.20606,5.24556 -3.27758,17.70423 -3.44707,20.7316 -3.33171,19.97956 -3.06511,19.98189 0.11598,0.001 5.76653,-2.18027 12.55679,-4.8473 z m -41.635795,3.67479 c 0.106896,-0.0973 -9.813962,-26.2017 -10.040774,-26.41997 -0.161628,-0.15554 -24.723351,3.83693 -24.940458,4.05404 -0.07906,0.0791 14.108213,19.53043 14.780559,20.26478 0.119361,0.13037 2.472976,0.73975 5.230254,1.35417 l 5.013238,1.11714 4.938371,-0.14848 c 2.716104,-0.0817 4.974569,-0.18143 5.01881,-0.22168 z m 80.860145,-28.69105 c 7.58899,-11.13468 13.79816,-20.38715 13.79816,-20.56103 0,-0.17388 -0.1462,-0.26094 -0.32489,-0.19346 -0.1787,0.0675 -7.16714,1.79341 -15.52988,3.8354 -8.36274,2.04199 -15.29837,3.79447 -15.4125,3.89439 -0.22563,0.19752 -7.18386,32.55312 -7.03748,32.72406 0.11868,0.13859 5.33784,0.4555 8.32693,0.5056 l 2.38151,0.0399 z m 60.98554,12.77235 c 2.77763,-1.6797 5.0514,-3.12581 5.05281,-3.2136 0.006,-0.34393 -2.68519,-0.49018 -9.01826,-0.49018 -6.17115,0 -6.60034,0.0301 -6.47757,0.45485 0.0723,0.25017 0.37553,1.62447 0.67381,3.05399 0.29827,1.42953 0.5942,2.74535 0.65761,2.92404 0.0785,0.22125 0.74467,0.32489 2.08832,0.32489 h 1.97303 z m -11.31921,1.80723 c 0,-0.52309 -1.01884,-5.31691 -1.16002,-5.45808 -0.0497,-0.0497 -2.57223,0.0885 -5.60554,0.30722 -5.01522,0.36161 -6.31917,0.56106 -5.58037,0.85359 0.14295,0.0566 2.83306,1.13954 5.97802,2.40653 3.14497,1.26699 5.86432,2.3158 6.04301,2.33069 0.17869,0.0149 0.3249,-0.18309 0.3249,-0.43995 z m -10.19366,-6.78609 c 6.12155,-0.42447 7.41528,-0.58884 7.05302,-0.89608 -0.0596,-0.0505 -5.19612,-4.27588 -11.41456,-9.38968 -6.21845,-5.1138 -11.51167,-9.4773 -11.76272,-9.69666 -0.25104,-0.21935 -0.51583,-0.33944 -0.58842,-0.26685 -0.0726,0.0726 0.45619,2.85834 1.17507,6.19056 l 1.30705,6.05858 -0.69277,2.44119 c -0.4085,1.43947 -0.59673,2.53427 -0.45872,2.66801 0.27263,0.26419 7.90567,3.35987 8.29141,3.36269 0.14295,0.001 3.33374,-0.21125 7.09064,-0.47176 z M 69.496842,137.55082 c 6.346886,-1.06234 11.623807,-2.02528 11.726492,-2.13986 0.441624,-0.4928 11.694588,-30.5899 11.507255,-30.77724 -0.113921,-0.11392 -0.68236,-0.24172 -1.263197,-0.28401 l -1.056066,-0.0769 -16.422074,17.38359 c -9.032139,9.56098 -16.422073,17.48511 -16.422073,17.60919 0,0.3046 -0.956366,0.44207 11.929663,-1.71479 z m 2.51774,-16.42084 c 8.993841,-9.52686 16.389985,-17.41745 16.43588,-17.53462 0.04589,-0.11718 -0.188032,-0.26968 -0.51983,-0.33889 -0.331798,-0.0692 -8.966012,-0.77715 -19.187138,-1.5732 -10.221129,-0.79604 -18.905514,-1.50106 -19.298634,-1.56669 -0.434774,-0.0726 -0.714764,-0.002 -0.714764,0.17974 0,0.1645 0.915696,1.88675 2.034881,3.82724 l 2.034879,3.52816 1.102682,13.90541 c 1.302571,16.42609 1.346357,16.89443 1.579539,16.89443 0.09904,0 7.538667,-7.79471 16.532505,-17.32158 z m 32.077248,9.38815 c 10.79294,-2.38183 19.66559,-4.37159 19.71699,-4.42169 0.0514,-0.0501 -3.43197,-4.70295 -7.74082,-10.33965 l -7.83429,-10.24855 -3.04562,-0.15853 c -1.67509,-0.0872 -4.68827,-0.23271 -6.695955,-0.32337 l -3.65034,-0.16485 -5.641597,14.81346 c -3.102877,8.1474 -5.641594,14.9528 -5.641594,15.1231 0,0.17096 0.203735,0.25166 0.454851,0.18017 0.250166,-0.0712 9.285435,-2.07826 20.078375,-4.46009 z m 35.41716,-7.30248 c 6.82811,-1.25689 12.38378,-2.37578 12.34592,-2.48642 -0.0378,-0.11064 -2.70045,-3.4661 -5.91689,-7.45659 l -5.84807,-7.25544 -6.23794,-0.15072 c -15.02545,-0.36304 -23.00241,-0.4214 -23.00241,-0.16828 0,0.14255 3.40701,4.71371 7.57113,10.15811 6.43765,8.41695 7.65365,9.87989 8.12232,9.77177 0.30315,-0.0699 6.13783,-1.15553 12.96594,-2.41243 z m 29.77403,-6.42038 c 8.19379,-2.02694 14.89703,-3.79626 14.8961,-3.93182 -0.001,-0.13555 -5.64123,-1.99775 -12.53398,-4.1382 l -12.53228,-3.89175 -8.27686,0.48134 c -4.55227,0.26473 -8.27686,0.58436 -8.27686,0.71027 0,0.27863 11.47777,14.49995 11.68166,14.47394 0.0794,-0.0101 6.84844,-1.67683 15.04222,-3.70378 z M 99.158377,99.234478 c 3.080673,-2.250623 5.324013,-4.091387 5.960693,-4.891021 1.02295,-1.284775 2.47505,-4.605745 2.20496,-5.042763 -0.0791,-0.127989 -3.20718,-2.939754 -6.95128,-6.24836 L 93.565302,77.036685 91.424408,70.121533 89.283513,63.20638 89.109751,59.372647 c -0.09557,-2.108554 -0.27213,-3.833736 -0.392356,-3.833736 -0.120224,0 -2.216119,0.946412 -4.657543,2.103139 -2.441421,1.156726 -4.490913,2.051174 -4.554423,1.987664 -0.06351,-0.06351 -0.443154,-1.090661 -0.843648,-2.282556 -0.400497,-1.191895 -0.839766,-2.204278 -0.976157,-2.249741 -0.275044,-0.09168 -10.891488,9.221631 -10.891488,9.554599 0,0.115099 5.377238,8.623564 11.94942,18.907701 l 11.949416,18.698433 1.176253,0.25679 c 2.161596,0.47189 2.13895,0.48208 7.289152,-3.280462 z M 87.646801,100.95893 C 87.466072,100.49309 65.880289,66.652186 65.508383,66.251639 c -0.247055,-0.266086 -1.674251,0.803921 -7.049521,5.285216 -3.706863,3.090362 -7.051749,5.930609 -7.433077,6.311654 -0.671608,0.671113 -0.732256,0.995815 -1.936131,10.366187 -0.68354,5.320353 -1.180772,9.735404 -1.104953,9.811221 0.136004,0.136006 36.45949,3.168893 38.655704,3.227613 0.808781,0.0216 1.096417,-0.0626 1.006396,-0.2946 z"
       id="path2353" />
    <path
       style="fill:url(#linearGradient2612);fill-opacity:1;stroke:url(#linearGradient2698);stroke-width:0.259914"
       d="M 125.01493,264.89046 C 98.115313,262.34453 74.243022,252.38408 53.148637,234.90499 49.274357,231.6947 40.976452,223.39244 37.666626,219.41485 22.494174,201.18129 12.76605,180.24654 8.9816183,157.68521 7.6005269,149.45167 7.2850711,145.41625 7.2850711,135.98237 c 0,-6.48709 0.1137473,-9.62221 0.4667917,-12.86575 C 10.646783,96.519922 20.486237,73.236448 37.518009,52.679853 40.871566,48.632262 49.64076,39.925979 53.88493,36.430357 71.81505,21.66258 92.476536,12.167922 114.87827,8.4018353 c 8.19034,-1.3769287 11.00902,-1.5861559 21.44293,-1.591683 6.32053,-0.00333 10.84318,0.1147207 12.86575,0.3358753 15.85993,1.7341823 29.77579,5.6604904 43.41331,12.2489034 41.61482,20.104502 69.25686,60.559849 72.89394,106.683469 0.38443,4.87517 0.32196,15.9807 -0.11786,20.95033 -3.26848,36.93192 -21.68551,70.16055 -51.21083,92.39632 -18.56923,13.98463 -39.84298,22.4 -63.80894,25.24125 -4.95056,0.5869 -20.09372,0.72086 -25.34164,0.22416 z m 18.84378,-0.7687 c 7.07065,-0.27691 16.20516,-1.65451 24.08623,-3.63257 45.38924,-11.39211 81.15205,-46.92523 92.87396,-92.27745 2.82307,-10.92249 3.99998,-20.40534 3.99998,-32.22937 0,-9.6285 -0.69334,-16.84641 -2.45422,-25.54925 C 255.66303,77.311513 236.16317,48.212371 207.92757,29.198082 201.68308,24.992943 191.97389,19.814555 185.18507,17.068387 154.46153,4.6402964 120.3026,4.4088072 89.536632,16.420197 56.635589,29.265141 29.96791,55.891082 17.042041,88.801322 13.546009,97.702482 11.2633,106.01446 9.7500188,115.3536 7.9136933,126.68639 7.6669947,140.89251 9.1096875,152.22701 16.227273,208.14625 59.349412,253.17193 114.76329,262.54448 c 7.35695,1.24433 17.37153,2.01326 23.37731,1.79498 1.2151,-0.0442 3.78825,-0.14213 5.71811,-0.2177 z"
       id="path2569" />
    <path
       style="fill:#ffffff;fill-opacity:0;stroke-width:0.0649785"
       d="m 50.159624,40.311889 c 0,-0.372115 0.0113,-0.399235 0.252568,-0.606112 0.138912,-0.119116 0.687168,-0.611532 1.218348,-1.094262 1.372839,-1.247624 2.042404,-1.81416 3.936841,-3.331064 15.937341,-12.761275 34.21902,-21.489318 53.722739,-25.6483138 3.48978,-0.7441671 8.41354,-1.5835074 11.79361,-2.0104258 4.2863,-0.5413799 8.42146,-0.6914859 17.41425,-0.6321319 7.43691,0.049083 9.01802,0.1134295 12.25978,0.4989406 3.52174,0.418801 7.30994,1.0147459 10.77512,1.6950981 1.09002,0.2140135 2.03302,0.4043204 2.09556,0.4229047 0.0884,0.026247 0.11371,0.105246 0.11371,0.3543062 0,0.2248089 -0.026,0.3205139 -0.0872,0.3205139 -0.048,0 -0.50045,-0.0876 -1.00554,-0.194665 C 161.2758,9.7955068 158.05897,9.2160085 156.36708,8.9549415 146.8947,7.4932985 137.28814,7.0778841 127.77652,7.7186044 108.42687,9.0220292 89.505292,14.709261 72.860506,24.22463 c -7.466735,4.268528 -14.587265,9.34698 -20.940535,14.935057 -0.693635,0.610095 -1.373474,1.206572 -1.51075,1.325504 l -0.249597,0.216244 z"
       id="path3088" />
    <path
       style="fill:#ffffff;fill-opacity:0;stroke:url(#linearGradient3170);stroke-width:0.0649785"
       d="m 50.159624,40.311889 c 0,-0.372115 0.0113,-0.399235 0.252568,-0.606112 0.138912,-0.119116 0.687168,-0.611532 1.218348,-1.094262 1.372839,-1.247624 2.042404,-1.81416 3.936841,-3.331064 15.937341,-12.761275 34.21902,-21.489318 53.722739,-25.6483138 3.48978,-0.7441671 8.41354,-1.5835074 11.79361,-2.0104258 4.2863,-0.5413799 8.42146,-0.6914859 17.41425,-0.6321319 7.43691,0.049083 9.01802,0.1134295 12.25978,0.4989406 3.52174,0.418801 7.30994,1.0147459 10.77512,1.6950981 1.09002,0.2140135 2.03302,0.4043204 2.09556,0.4229047 0.0884,0.026247 0.11371,0.105246 0.11371,0.3543062 0,0.2248089 -0.026,0.3205139 -0.0872,0.3205139 -0.048,0 -0.50045,-0.0876 -1.00554,-0.194665 C 161.2758,9.7955068 158.05897,9.2160085 156.36708,8.9549415 146.8947,7.4932985 137.28814,7.0778841 127.77652,7.7186044 108.42687,9.0220292 89.505292,14.709261 72.860506,24.22463 c -7.466735,4.268528 -14.587265,9.34698 -20.940535,14.935057 -0.693635,0.610095 -1.373474,1.206572 -1.51075,1.325504 l -0.249597,0.216244 z"
       id="path3127" />
    <path
       style="fill:#ffffff;fill-opacity:0;stroke-width:0.0649785"
       d="m 50.224603,40.242476 c 0,-0.257588 0.01953,-0.279146 1.283327,-1.417497 1.650629,-1.486773 2.561486,-2.256301 4.402296,-3.719227 11.359692,-9.027761 23.777284,-15.976708 37.102758,-20.762894 8.204856,-2.946984 16.768166,-5.0378516 26.186366,-6.3938174 5.40506,-0.7781819 9.49656,-0.9656762 19.42859,-0.8903176 7.49117,0.056838 9.08505,0.1274286 12.60584,0.5582867 3.93833,0.4819571 9.66111,1.4350444 12.29719,2.0480046 0.12144,0.028239 0.1462,0.077809 0.1462,0.2926742 0,0.1422715 -0.01,0.2586755 -0.0215,0.2586755 -0.0118,0 -0.52076,-0.100783 -1.13098,-0.2239622 C 149.90293,7.4445517 137.2414,6.7510946 124.59257,7.9149094 107.44722,9.4924478 90.644344,14.533136 75.663716,22.593061 c -8.494922,4.570463 -16.276804,9.972326 -23.78356,16.509566 -0.822846,0.716574 -1.531964,1.325039 -1.575816,1.35214 -0.05795,0.03581 -0.07973,-0.0222 -0.07973,-0.212291 z"
       id="path3172" />
    <path
       style="fill:#ffffff;fill-opacity:0;stroke-width:0.0649785"
       d="m 50.224603,40.242476 c 0,-0.257588 0.01953,-0.279146 1.283327,-1.417497 1.650629,-1.486773 2.561486,-2.256301 4.402296,-3.719227 11.359692,-9.027761 23.777284,-15.976708 37.102758,-20.762894 8.204856,-2.946984 16.768166,-5.0378516 26.186366,-6.3938174 5.40506,-0.7781819 9.49656,-0.9656762 19.42859,-0.8903176 7.49117,0.056838 9.08505,0.1274286 12.60584,0.5582867 3.93833,0.4819571 9.66111,1.4350444 12.29719,2.0480046 0.12144,0.028239 0.1462,0.077809 0.1462,0.2926742 0,0.1422715 -0.01,0.2586755 -0.0215,0.2586755 -0.0118,0 -0.52076,-0.100783 -1.13098,-0.2239622 C 149.90293,7.4445517 137.2414,6.7510946 124.59257,7.9149094 107.44722,9.4924478 90.644344,14.533136 75.663716,22.593061 c -8.494922,4.570463 -16.276804,9.972326 -23.78356,16.509566 -0.822846,0.716574 -1.531964,1.325039 -1.575816,1.35214 -0.05795,0.03581 -0.07973,-0.0222 -0.07973,-0.212291 z"
       id="path3211" />
    <path
       style="fill:#ffffff;fill-opacity:0;stroke:url(#linearGradient3293);stroke-width:0.0649785"
       d="m 50.224603,40.242476 c 0,-0.257588 0.01953,-0.279146 1.283327,-1.417497 1.650629,-1.486773 2.561486,-2.256301 4.402296,-3.719227 11.359692,-9.027761 23.777284,-15.976708 37.102758,-20.762894 8.204856,-2.946984 16.768166,-5.0378516 26.186366,-6.3938174 5.40506,-0.7781819 9.49656,-0.9656762 19.42859,-0.8903176 7.49117,0.056838 9.08505,0.1274286 12.60584,0.5582867 3.93833,0.4819571 9.66111,1.4350444 12.29719,2.0480046 0.12144,0.028239 0.1462,0.077809 0.1462,0.2926742 0,0.1422715 -0.01,0.2586755 -0.0215,0.2586755 -0.0118,0 -0.52076,-0.100783 -1.13098,-0.2239622 C 149.90293,7.4445517 137.2414,6.7510946 124.59257,7.9149094 107.44722,9.4924478 90.644344,14.533136 75.663716,22.593061 c -8.494922,4.570463 -16.276804,9.972326 -23.78356,16.509566 -0.822846,0.716574 -1.531964,1.325039 -1.575816,1.35214 -0.05795,0.03581 -0.07973,-0.0222 -0.07973,-0.212291 z"
       id="path3250" />
  </g>
</svg>
